<?xml version="1.0" standalone="no"?>
<!DOCTYPE svg PUBLIC "-//W3C//DTD SVG 1.1//EN" "http://www.w3.org/Graphics/SVG/1.1/DTD/svg11.dtd" >
<svg xmlns="http://www.w3.org/2000/svg">
<metadata>
This is a custom SVG webfont generated by Font Squirrel.
Copyright   : Copyright 2005 Joseph M Pence
</metadata>
<defs>
<font id="CliveBarkerRegular" horiz-adv-x="688" >
<font-face units-per-em="2048" ascent="1638" descent="-410" />
<missing-glyph horiz-adv-x="928" />
<glyph unicode=" "  horiz-adv-x="928" />
<glyph unicode="&#x09;" horiz-adv-x="928" />
<glyph unicode="&#xa0;" horiz-adv-x="928" />
<glyph unicode="!" horiz-adv-x="672" d="M286 399h47q100 -33 90 -71q5 -47 -9 -76q-33 -42 -48 -90l-75 -61l-57 -85l-28 -24q-81 -5 -81 14l85 194l19 95l-4 85l9 9h43zM469 1928q12 6 95 -15q71 1 71 -10l-12 -21l12 -83q-37 -20 -25 -119q-51 -31 -58 -47l7 -26l-52 -55l-6 -26l-32 -33l-14 -33 q-52 -33 -52 -43l-83 -224l-12 -149l-15 -18l-4 -112l-15 -20q7 -40 -12 -66l7 -14l31 -20l20 -47l32 -28l-13 -19l-160 -22q-20 -8 -58 16l11 186l27 120l-7 10l71 356l39 100l7 86l95 251l14 12v20l39 79z" />
<glyph unicode="'" horiz-adv-x="536" d="M201 2102q30 7 40 -13l83 -79l30 -56l5 -57q-10 -141 4 -192l-14 -42l-59 -28q-84 -85 -109 -142l-24 -14l-68 -106l-73 -37q-14 16 -62 0l-12 16l6 85l112 212l87 219l5 43q25 21 29 156z" />
<glyph unicode="(" horiz-adv-x="480" d="M339 1783q100 -4 113 -26v-17l-35 -44q-9 -4 0 -60l61 -57l-13 -17l-91 8l-61 -26l-87 -86q-65 -100 -113 -252l-47 -265l-13 -143q-5 -191 26 -282l26 -43l34 -157l70 -173l56 -109l52 -56v-22l-8 -4l-74 17q-113 109 -208 356q-61 156 -70 365q-4 108 13 282 q13 34 31 191l43 147l100 243l65 109l82 99q31 26 48 22z" />
<glyph unicode=")" horiz-adv-x="480" d="M167 1781l62 -28q29 5 40 -12l57 -56l68 -40l11 -17v-45q46 -108 51 -267l-11 -227l-34 -233l-11 -17q0 -34 -74 -272q6 -34 -34 -136q-17 -6 -108 -221l-119 -182l-74 -68l-17 11l6 51l40 63l124 255l6 34l45 85l63 193l68 318q45 147 28 391q0 46 -45 159 q-51 80 -63 74q-68 6 -73 23l-29 51q-73 45 -62 90l17 17z" />
<glyph unicode="," horiz-adv-x="536" d="M209 422q30 7 40 -13l83 -79l30 -56l5 -57q-10 -141 4 -192l-14 -42l-59 -28q-84 -85 -109 -142l-24 -14l-68 -106l-73 -37q-14 16 -62 0l-12 16l6 85l112 212l87 219l5 43q25 21 29 156z" />
<glyph unicode="-" d="M34 728l64 -12l96 23l8 11l209 50h123l86 -39l36 -50l13 -33q6 -39 -9 -50l-67 -12l-33 -44q-50 -12 -76 22q-122 11 -378 -6l-54 40q-18 0 -52 50q0 38 34 50z" />
<glyph unicode="." horiz-adv-x="496" d="M355 1204q61 14 68 -26q7 -28 -41 -102q-95 -100 -110 -94l-19 -101l-69 -94q-96 -48 -109 -74q-54 -22 -81 40q-14 27 54 108l232 242l54 88z" />
<glyph unicode="?" horiz-adv-x="1064" d="M286 399h47q100 -33 90 -71q5 -47 -9 -76q-33 -42 -48 -90l-75 -61l-57 -85l-28 -24q-81 -5 -81 14l85 194l19 95l-4 85l9 9h43zM83 1662l108 -33l24 -19l114 28l104 47l118 24l118 -5l99 -38l81 -47l80 -90l29 -71l-5 -23l24 -86l-5 -33l-29 -37l-66 -48l-61 -66l-14 -5 q-142 -132 -227 -189l-24 -43l-43 -33l-38 -75q-80 -81 -89 -104q-10 -33 0 -52l52 -48l4 -56l-42 -57l-33 -10q-62 0 -67 19q-4 29 48 57l9 43q-80 71 -90 99l-37 38l4 33q33 28 48 85l42 80l147 152l33 19l28 38l48 28l89 76l24 28l43 19l123 104q28 66 18 76 q-33 80 -108 123q-90 37 -128 42q-114 -14 -213 -52q-76 -38 -175 -113l-38 -114q-4 -14 -38 -14q-33 -47 -61 -43q-38 15 -76 10l-28 19l-10 19l15 184q52 123 71 114z" />
<glyph unicode="A" horiz-adv-x="1704" d="M628 847v-13l11 9l-4 8zM639 884l4 -24q15 4 39 43l-4 7l-24 -4zM814 1021q-8 -13 15 -17l288 26q27 0 27 33q27 340 47 394q4 21 -8 30q-27 8 -71 -56l-77 -113l-78 -90zM1191 1771l8 -8l-4 -17h-12q-4 22 8 25zM122 915q66 -9 81 0l13 9q23 -9 139 3l31 14l98 8l39 12 q46 0 135 22l35 25l144 209q7 24 78 117l-16 -47l-51 -70q5 -10 -120 -205v-12q28 -13 59 43q226 325 222 330q112 122 205 279l8 18q0 114 8 114l-4 29l-8 -3l-4 3l24 56q11 38 8 80l3 9l20 9q31 -9 31 -22l-12 -81l-3 -84l3 -47q51 -16 43 -59l-15 -60l30 -34 q19 -21 12 -93l4 -16q35 -10 23 -90l-61 -164v-22l-12 -30l-16 -89l9 -22l216 14l4 -5q148 17 296 17q39 -8 47 -21v-22l-70 -110q-39 -50 -51 -50l-15 7l3 26q32 43 47 107l-8 16l-35 4l-209 -4l-63 -16l-74 -9l-69 -59l-24 -34l-15 -51q-16 -135 -24 -140q16 -68 -31 -157 v-85l-8 -38l4 -12l-8 -110l4 -145l16 -119q-20 -45 -43 -42q-43 -9 -55 21l-15 179l4 4l-8 144q8 445 -4 450l-27 63l-42 47l-71 33h-70l-159 -33l-31 -34q-109 -170 -125 -187l-100 -165l-315 -449l-52 -98q-39 -31 -61 -31l-17 6l-11 16l11 38l47 69q16 41 172 305 l155 236l187 268l-4 8l-24 4l-108 -26l-66 -3l-206 -41l-4 3l-32 -13l-158 -16q-249 -14 -244 63l27 21q43 12 271 8z" />
<glyph unicode="B" horiz-adv-x="1552" d="M777 1250q-17 -55 52 -55l205 39l81 58l56 112l26 108l-4 132l-16 38q-6 21 -62 45l-107 49l-127 -5l-18 -24q-4 -11 13 -65l-5 -19l22 -28l-8 -69q17 -44 4 -74l-74 -93q-25 -42 -38 -149zM662 130l4 -10q99 0 149 20l5 10l164 54l153 87q133 93 222 191l-4 24 q30 44 26 53q8 11 0 118q48 171 -42 367l-35 49l-209 63l-125 -15l-30 -25l-141 -53q-43 -34 -74 -342l4 -323l-21 -190l-30 -49v-9zM196 726l97 -19l34 -21q-24 -38 -68 -33l-74 -68l-46 -35l-77 -88q-43 -83 -71 -93l-56 -13q-29 -21 -8 -123q26 -49 56 -64l70 -45 l176 -38l68 5q61 -25 103 -14l22 9l63 5l57 29l9 45q-9 72 0 151l8 33l47 465l8 137l-12 29q-129 -29 -172 -25l-26 21l-22 33q-4 39 32 39q46 -9 128 5l76 53l23 441v147q-15 38 -31 38l-115 15l-69 -5l-8 -10l-86 -15l-91 -29l-16 -15l-147 -29q-83 -9 -113 0 q-22 15 -26 34q0 30 18 35l105 34l4 -5l56 24l55 5q103 40 197 40l4 -6q78 19 107 6q177 32 404 32l119 -8l194 -50l90 -43l63 -69l30 -82v-64l-12 -25l-9 -39l-56 -78l-123 -116v-19l21 -16q227 -68 231 -87q141 -118 166 -299q6 -102 -46 -220l-61 -92q-59 -88 -260 -235 q-181 -112 -278 -146q-99 -35 -300 -73l-13 -16q4 -33 -13 -151l-52 -35h-51l-8 11l8 133l-8 13l-40 6q-123 -10 -178 0q-32 -15 -66 -10q-8 10 -175 44l-115 53q-63 39 -75 117q-6 25 12 102l26 65q33 43 37 68q-8 28 0 44l149 141q43 10 56 40z" />
<glyph unicode="C" horiz-adv-x="1392" d="M360 128q-10 -15 18 -35q24 -21 122 -60l89 -11l18 -9q5 9 102 0l28 9l-4 11q-182 45 -326 100zM1055 1947q168 0 262 -26q24 -20 51 -20q75 20 97 0q24 -5 66 -110q-14 -95 -46 -145q-24 -30 -103 -45l-33 5l-4 -5l-28 11l-23 25q0 15 -62 94l-51 31l-89 25h-134 q-10 -16 -75 -16l-38 -20l-38 -5l-176 -90l-66 -44l-79 -75l-145 -185q-139 -290 -135 -564l14 -131l24 -70q-11 -30 17 -100l47 -120l29 -39l23 -11l75 -100l74 -50l70 -20l19 -19q46 0 75 -25q51 14 158 -16l112 10q88 31 107 20l11 11l-6 15q-32 -6 -32 -15l-47 -6 q-10 31 19 36q186 54 228 94h9l-13 -49q-94 -90 -210 -140q-173 -71 -351 -87q-219 0 -302 46l-118 65q-93 85 -130 134q-111 186 -111 390l4 171q14 105 31 155v46q30 84 20 88l18 36l5 30l84 215l43 65q-5 30 120 179l56 35l47 45l224 150q210 91 406 121z" />
<glyph unicode="D" horiz-adv-x="1976" d="M210 348v-66q36 -64 57 -69l67 -32q68 -5 78 15l67 297l-5 27l-124 -33l-47 -21l-62 -59zM635 1789q0 -15 21 -22q41 -10 72 22v17q-41 5 -93 -17zM562 186v-54q78 -5 83 11l31 -6q208 49 353 125l161 96l88 76l-5 15l-182 6l-378 54l-26 11q-73 5 -68 -33 q-15 -43 -57 -301zM645 627q-5 -48 161 -81l389 -75h124l21 11l176 183l120 183l15 5l68 172l31 140l-6 173l-31 101l-83 124q-129 118 -306 172l-274 54h-114l-11 -10l5 -27l26 -27l6 -59q-26 -81 -16 -140l-52 -97l-83 -108l-31 -69q-36 -162 -52 -281l-10 -15 q5 -66 -73 -329zM-288 1860l99 26l124 21l347 -5l73 -22l301 -5l83 5l10 17l-5 64q10 33 41 27l88 -5l32 -27q5 -64 36 -70l119 -33l135 -20l31 -17q83 -5 192 -54l46 -27l26 -5l57 -37q130 -54 135 -92q52 -11 62 -27l109 -102l16 -38q36 -22 52 -113q7 -101 5 -226l-5 -59 l-42 -113l-10 -11q-10 -69 -26 -81q-88 -123 -99 -160l-83 -103l-155 -119l-67 -26l-47 -43l-140 -103l-73 -27q-274 -177 -612 -166q-36 -59 -134 -76l-42 11l-10 11q5 48 -16 54l-114 27l-109 43l-57 49l-15 47q10 119 145 237q88 65 280 86q88 420 98 539l21 59l31 167 v80l-41 161l-37 65l-93 103l-109 53q-57 11 -332 -21l-5 5q-238 -32 -316 5v71z" />
<glyph unicode="E" horiz-adv-x="1544" d="M196 985l4 -4l82 25l16 45l19 326l12 42l-4 161q-27 45 -23 62h-39q-75 -17 -150 -21l-54 9q-24 8 -32 32v22l16 16l44 -13l82 -12l39 9l19 -5l55 12l47 70l20 71l28 8l4 -4h11q8 20 39 25l66 -17l40 -58q-8 -20 0 -28l67 12l43 20q15 -4 193 46l206 29l24 16l188 25 l24 -3l47 3l35 13l44 -4l19 8l35 -8l56 4l15 8q43 -8 66 0v-24l-19 -75q-19 0 -43 -38q-36 -4 -55 -24q-35 8 -164 0q-146 24 -197 17q-90 0 -195 -22l-13 -7q-43 -9 -51 0l-7 -9q-98 -12 -287 -61l-62 -25q-24 -46 -67 -257l-35 -268q-8 -83 16 -92l203 38l32 12 q3 -7 71 21l114 13q19 -13 54 -9q129 20 424 29l183 -25l-3 -41l-251 5l-27 -9l-251 -21l-224 -37l-8 -8l-196 -42l-87 -25q-26 -25 -39 -53l-11 -120l3 -29l-15 -78q8 -71 -20 -136q9 -18 0 -100l-8 -16l-7 -70l4 -13l-32 -149l-8 -99l24 -12l12 8h39l114 21l23 8l16 17 q19 -5 27 7q8 -7 114 21l153 13l126 33q43 -4 101 12l4 -4l146 13q23 12 98 7q39 -7 46 -20h16v-25q-66 -25 -74 -16l-134 -54l-23 -25l-63 -8q-47 -37 -302 -58q-86 -41 -98 -33q-67 8 -165 0l-50 -17l-90 5l-28 16v16q-19 9 -28 50q-58 -53 -74 -45q-35 0 -35 17l19 161 q4 57 -11 65v50l15 62q-8 54 0 223l16 83l12 215l-8 4q-35 -17 -90 -17l-16 9q-8 33 -20 33l-121 -38l-85 -4l-12 13q-5 37 23 37h43z" />
<glyph unicode="F" horiz-adv-x="1560" d="M-187 1742l73 -13q76 -9 168 0l28 8l137 13l9 8l68 5l302 46l12 8q0 46 20 46l53 5l36 -9l20 4l41 -12l157 8l117 17q3 -8 217 17l4 -4q286 21 378 -9q37 -21 57 -46v-38q20 -42 77 -88l3 -25l20 -34v-17l-23 -21q-4 -34 -45 -55q4 -25 -12 -33l-101 54l-56 55l-8 80 l-29 21q-3 -9 -60 0q-11 -13 -148 -9l-86 -12q-132 4 -197 -8l-20 -9q-61 9 -198 -38l-11 -8l-49 -67l-16 -55l-44 -311q-8 -38 16 -46l157 4l44 17q20 -26 53 -17l141 17l197 12l40 -4q13 34 77 21l57 -21l20 -21v-21l-29 -46q-141 -9 -149 38l-80 -5v5l-218 -21l-12 -9 l-133 -17l-12 -8l-173 -25l-20 -9q-13 -63 -13 -147l-24 -113l-48 -476l-41 -290l-7 -17l3 -42q-3 -38 -76 -47l-44 22l4 101l40 244l16 134l9 21l11 106l40 206v29q33 126 37 223l-8 13l-117 17l-40 -5q-25 -33 -101 5l-16 -5q-93 5 -105 13q-178 0 -197 38q-3 12 28 42 l84 -9q41 9 85 0l149 17h81l137 17q28 -4 36 13l4 67l9 21l-29 261q8 92 -16 96l-226 55l-96 -8l-158 4l-23 -9l-5 5l-136 -5l-16 9q-40 -9 -96 17l-21 25q0 25 16 34z" />
<glyph unicode="G" horiz-adv-x="1688" d="M947 1953l105 -5q45 16 149 11l41 -16q5 10 123 -21l77 6l37 -32q27 6 36 -15q5 -67 -14 -171l23 -109l-13 -15l-78 -25l-45 4q-23 11 -27 68l-23 20l-31 182q-15 19 -87 61l-46 15l-127 -9q-14 -21 -90 -27l-41 -21v-19l31 -32l-5 -25l-104 -27q-168 -93 -227 -144 l-186 -202q-105 -139 -155 -258l-54 -181l-9 -109l9 -155l22 -170l55 -197q45 -109 205 -238q99 -62 222 -73q168 -9 213 21l78 52l131 129l74 88q141 222 154 321l45 300q5 77 -14 77l-40 -10l-32 -36h-37l-41 15q-109 21 -259 0q-140 -15 -176 -36q-37 -10 -87 0l-36 15 q-91 11 -114 27l-45 25l-5 16q-4 36 9 46q78 -10 132 0l205 16l4 -6l137 36h91q90 -25 131 -10l82 42l77 21l4 31q14 9 41 0l82 -42q32 -42 50 -42l14 -20q0 -72 18 -83l-27 -211l-37 -150q-27 -52 -36 -109l-18 -21l-87 -238l-13 -20l-23 -84l-82 -149l-50 -47l-59 -10 q-23 -5 -77 16l-136 -6l-64 -4q-40 -37 -68 -17l-22 32l-169 5l-150 47l-59 30l-72 52l-14 21l-105 93l-54 57q-100 46 -113 118q-72 213 -72 300q-5 99 8 177l9 21l5 51l54 160l41 88l68 119l78 113l67 78l19 32l36 30l54 67q100 93 182 145q64 47 73 36l14 15h18 q159 89 195 78q5 21 27 21z" />
<glyph unicode="H" horiz-adv-x="1704" d="M240 1037l4 -12q34 -14 76 26v13l-63 -8zM430 1709l45 -10l38 -35q38 0 42 -18q0 -27 21 -71v-75q9 -27 34 -36l4 -14l-4 -26l-46 -40l-38 -84l-5 -53l-17 -50q-4 -22 31 -35l121 5l71 12l177 10l167 17q17 5 21 27l13 45q12 133 84 497q42 40 118 14l4 -67l8 -18v-36 l-21 -66l13 -35v-54l-17 -32l-50 -48l-38 -98l-21 -88l8 -19l46 -8l210 8v-4l173 4l95 -8l-12 -31h-87q-56 17 -278 4q-155 -26 -159 -18q-21 -8 -25 -70q-25 -191 -25 -316l-43 -271q0 -130 -25 -280l4 -115l-8 -27q8 -10 0 -76l17 -76q-17 -39 -17 -133l-42 -23h-42 l-34 121l-37 240l-30 124q-25 23 -38 103l4 8l17 -4l39 -49q50 -97 66 -89q13 0 13 23l8 102l-4 21l42 419l9 26v40l12 53l17 138q29 89 8 111l-222 -17q-143 -32 -285 -45l-72 -22l-21 -31q0 -40 -8 -45q8 -35 0 -40l-13 -18l-55 -204l-17 -98q-62 -213 -92 -341 q-17 -23 -50 -156l-21 -40v-14q-25 -35 -17 -53l-38 -39q-25 0 -38 -19q-49 0 -49 23l4 31q-13 8 -9 39l38 99l12 18l97 306l50 267q8 101 0 150l-17 18l-62 9l-39 45q-25 4 -125 -14l-5 4l-57 -4q-47 -17 -105 -17q-37 4 -37 27q-6 26 8 31q42 17 183 22l51 17 q104 27 108 18q85 27 152 35q21 14 25 50l29 386l-4 138q13 18 64 18z" />
<glyph unicode="I" horiz-adv-x="464" d="M154 -15l11 -10l-11 -4v14zM260 1924q49 14 182 -26l27 -27l25 -54v-25l-47 -39l-64 -231v-27l-22 -52q-32 -122 -20 -133l-43 -100l-54 -246l-30 -311l-33 -222l5 -23l-17 -118v-62q39 -32 -15 -150q11 -81 -4 -86l-92 -28q-65 -10 -75 40l65 427l64 561q32 329 69 555 l27 122l20 163q-14 71 32 92z" />
<glyph unicode="J" horiz-adv-x="1384" d="M-248 49h7v-37l-22 -76l-4 -107l30 -91l64 -69q62 -27 140 -48l78 4l103 37l79 51l108 107l63 89l53 87q93 163 171 502l52 431l52 577l7 20q4 40 -7 40l-63 -3v3l-251 -27q-62 -21 -95 -13q-20 -16 -64 -16l-30 8q-18 0 -71 -31l-49 4l-29 15h-87l-42 16l-18 17 q-4 27 7 36l33 -9q114 9 129 20q90 -7 165 37l89 -28l231 7l37 21h123l7 12v54q4 16 56 16l19 -7l130 4l8 -8q-26 -71 7 -81q8 10 75 0l51 10l57 -4q71 22 276 20q41 -16 64 -64l-4 -21l-52 5l-56 -33h-34l-41 13l-82 11l-272 4q-34 -28 -112 -198l-22 -104l-23 -212 q-25 -63 -25 -115l3 -64l-7 -16l-49 -319q-11 0 -11 -16l-8 -55l-53 -196l-10 -16l-11 -44l-19 -31q8 -4 -62 -152l-76 -132l-56 -74l-86 -93q-171 -132 -302 -123q-184 -4 -250 59q-53 60 -60 92l-12 69q-8 35 15 135z" />
<glyph unicode="K" horiz-adv-x="1240" d="M814 451v-5l17 5v4zM-88 947l14 14l68 31q20 14 93 -13l38 -22l64 -58h26l21 213q-9 14 4 81q-8 80 0 144l-30 228l-12 48h-9l-17 -30l-25 -10q-9 -22 -26 -26l-34 13q-4 49 13 99l30 71v22l17 36q-9 67 17 67l68 -4l22 -13q59 -161 72 -792q13 -5 9 -32l12 -17l26 26 q60 9 82 36l346 443q13 76 34 99l17 -6l47 36q107 10 107 -18l-13 -35l-120 -134l-42 -63l-13 -31l-43 -36l-47 -76l-111 -138l-82 -63l-25 -36l-4 -22l-68 -116q-9 -28 0 -41l59 -90l99 -84l188 -130l51 -58l94 -68l47 -53q59 -36 171 -152q34 -18 51 -40l8 -45l31 -22v-14 q-39 -36 -94 -58l-43 4q-21 -13 -43 -13q-26 9 -30 53q-4 46 13 90l-111 125q-210 188 -389 322l-159 99q-25 4 -34 -27l-59 -152l-48 -175l-34 -71q4 -269 -30 -327h-38l-59 36q-35 -9 -74 18v22l30 72l4 31l48 90l72 205q60 229 86 354q9 22 -35 36l-102 -27q-43 0 -47 22 v18l18 27l-18 18l-67 13l-73 50z" />
<glyph unicode="L" horiz-adv-x="1592" d="M476 1815q41 15 134 -32l35 -66l-13 -42l-5 -71l-8 -19q8 -19 -5 -80l-49 -75l-13 -57l-14 -19l-30 -103l-18 -29l-18 -56q-9 -10 -35 -80l-66 -222l-14 -84l-13 -28l-31 -142l-27 -70l-9 -62l-22 -47q-48 -198 -67 -231v-37l67 -34h62l31 15q27 42 75 51l213 57l5 -5 l89 24l4 -5q150 28 208 24l14 9q124 24 261 28q102 33 213 29l67 -14l17 -15q53 -9 53 -23q18 -28 -35 -71l-5 -28l-146 14l-22 -5l-110 19l-254 -14l-13 -14l-44 -10q-97 5 -439 -70l-249 -71q-101 -42 -101 -51l-23 -80q-17 -15 -88 -10l-36 24q-34 18 -163 -20l-84 6 l-17 18q-6 14 13 28h35l159 52q106 62 106 71l13 52l9 9v28l62 227l10 14l8 56l45 142v18l97 363v23l8 14l10 62l18 47v23l30 114l67 329q-14 10 27 137q-9 37 0 57z" />
<glyph unicode="M" horiz-adv-x="1552" d="M332 1475h14l24 -22q53 -22 63 -3l28 96l11 7q25 -3 35 8l-21 132l14 19l88 -5l83 -46q7 -10 -14 -32l-14 -61q4 -40 -7 -68l4 -8l-17 -89l6 -133l18 -67l17 -191l39 -232q14 -98 14 -191l10 -53q25 4 35 36q158 408 232 533l-50 -154l-59 -154l-3 -25l-56 -147l-32 -65 l-28 -103l-18 -112l4 -25q-11 -17 -11 -154l-34 -68q7 -47 -71 -64q-31 3 -31 10l4 40l10 21q7 54 17 68v18l11 26q21 82 14 93l21 15l-4 20l-10 -3l-7 32l3 4l-17 294l-18 100l-6 76l3 10l-17 93l3 4l-7 68l-7 11q-42 283 -60 308q-20 3 -31 -25l-147 -315 q-35 -100 -56 -144q-70 -215 -74 -276l-49 -154l-38 -71l-18 -83l-10 -22l4 -71l-11 -18l-10 -51q7 -3 0 -64q-15 -24 -60 -36q-48 -7 -52 90v35l14 36l3 33l28 97l88 196l31 76l17 78l14 22l53 133l7 65q-11 89 -7 150l14 39l10 75l7 29q10 15 50 118q7 29 0 47l7 26l6 64 q-6 10 4 54zM1252 1801l32 -4l52 -17l11 -15l-11 -61q11 -14 7 -46l-13 -115l-14 -65q-7 -47 0 -154l-11 -168l4 -126l-4 -118l-7 -22l4 -136l-7 -50l7 -262l-4 -3q14 -72 18 -172l10 -25q24 -11 77 78q119 205 161 298l7 -11l-4 -57l-24 -43l-10 -36l-81 -151l-28 -39v-10 l-31 -61l-22 -61q-21 -32 -28 -79l-3 -72l-56 -43h-11q-80 -75 -136 -83q-45 0 -45 15q0 25 14 36l48 50l26 36q-22 365 0 813l-4 15l10 254q-6 58 4 83l-4 115q-6 7 -28 -15l-88 -93l-7 -22l-21 4v18l28 61l63 201l18 82l10 18l50 154l3 89z" />
<glyph unicode="N" horiz-adv-x="1152" d="M-14 1698h65l34 -26l24 -48l76 -87l25 -13q42 -9 50 0l34 -17q0 -22 33 -48l38 -18l41 -74l43 -116l120 -196v-9l43 -48l16 -35l146 -200l5 -21l109 -165q29 -49 41 -100l17 -13l17 78l29 308l12 52l-4 18q17 22 4 86q-20 6 -29 -8l-21 -43h-13v30l-16 31v60l8 18 q-4 22 13 100q-9 13 21 287q-4 91 13 256l-5 70l21 30q8 35 0 39l12 13q39 18 96 18q63 0 72 -18l-5 -187l-12 -43q17 -27 -33 -105l-18 -138l-49 -205l-12 -26l-14 -126q14 -4 9 -152l-9 -109l-8 -21q4 -48 -8 -84l4 -55q-25 -361 -4 -374l-13 -66l-4 -222l13 -34l-29 -35 q-55 -4 -55 9l-8 126l8 161l-8 8l-17 101q-58 173 -121 299l-96 148l-222 274l-59 61l-50 34q-17 5 -21 -12q-130 -814 -167 -878l4 -18q-33 -195 -33 -291l-25 -35l-25 -22q-42 5 -47 44q9 79 0 87q26 148 22 174l17 57l16 142l59 348l49 422q10 65 0 135l-66 38l-79 114 l-59 57l-11 25l-67 57q-71 22 -76 60q50 44 139 66z" />
<glyph unicode="O" horiz-adv-x="1216" d="M430 1598l126 -25l45 -37l19 -100l13 -12l-32 -111l19 -56l-32 -26h-58l-100 -32l-32 -25q-81 -11 -113 -80l-103 -217q-25 -130 -56 -186l-7 -280l38 -162l65 -118l63 -62l100 -38h108l63 19q177 119 228 218q81 131 120 217l50 156l12 12v25l-25 -12 q-82 -211 -151 -306l-44 -55q-33 6 -33 19l33 106q57 93 119 317q58 248 71 253l25 231q0 26 -32 82l12 49l-5 25l12 168q-12 130 -83 217l-56 -7q-19 0 -76 -80q-132 -56 -158 12q-7 75 45 149q-19 100 68 81l32 -7q39 26 203 0l38 -17l69 -57q71 -100 89 -180l13 -136 q19 -38 12 -106l20 -37l-7 -30q32 -145 39 -269q-20 -187 -45 -273q-57 -199 -89 -248q-57 -93 -71 -143l-93 -156l-70 -63l-44 -68l-76 -74l-88 -56q-58 -31 -165 -39q-449 8 -486 468v167l62 348l56 143l12 50l83 194l90 135l88 107z" />
<glyph unicode="P" horiz-adv-x="1424" d="M483 1838l5 -12l150 5v11q-68 5 -68 17zM780 1022q-5 -21 8 -32q238 65 402 199q109 101 132 252q-18 246 -328 305q-60 15 -68 -33l-9 -96q-14 -5 -50 -209l-37 -102q-13 -150 -50 -284zM525 1896l182 -6q18 33 31 22l101 -11l55 -59q169 -47 228 -54l113 -54l92 -68 q110 -129 133 -221l-6 -112l-59 -96q-59 -87 -319 -215q-86 -48 -305 -80l-14 -22l-50 -284q-19 -37 -19 -80l-9 -11l-4 -54l-9 -21v-37l-23 -107l9 -75l-36 -107l4 -65l-45 -80l-50 -39l-55 12l-18 43q-51 48 -46 59l4 48q33 58 46 144l23 124l27 90q0 39 77 398l-8 26 l-288 54l-96 47l-27 43l-9 43l9 59q41 97 64 108l41 -5l-14 -113q5 -37 28 -58l91 -70q46 -28 182 -43q42 5 46 15l54 332v50q-22 5 -13 53q45 333 18 354l-109 -5v5l-356 -39l-77 -16l-5 7l-86 -22l-5 6q-250 -43 -455 -43q-68 16 -96 37q0 31 18 43l215 15q223 34 251 49 h44q46 21 96 21l18 11h60z" />
<glyph unicode="Q" horiz-adv-x="1560" d="M131 878l4 -174q12 -4 12 -66q8 -4 32 -175l24 -80l16 -19l8 -38l68 -94l36 -28l8 4q48 -69 160 -121l139 -48q108 -9 156 0l176 52l112 57q35 41 43 32l-4 14l-83 47l-12 15q-4 37 -12 37l-236 194l-40 52l-4 71l16 19h24q8 -29 132 -151l24 -15l28 -33l132 -108l4 -10 l23 -9l44 -43l60 -4q76 28 156 207q44 114 76 325q8 33 -16 128l-8 151l-40 208l-52 174l-68 141l-120 118h-4q16 -103 4 -132q-24 -19 -63 -19q-64 -4 -64 52q-4 57 8 90l-16 66l-60 52l-100 19l-44 -5l-12 -9l-168 -28l-87 -52q-48 -57 -108 -100l-68 -80l-72 -118 q-4 -24 -40 -84l-52 -113l-48 -175zM734 1879l180 -5l48 -19l60 -14l32 5l24 28h20l15 -24l60 -19l72 -47l36 -33l88 -104q-4 -9 92 -170q52 -155 72 -315v-152l-16 -132l-8 -9l-12 -169l-20 -95q-40 -151 -116 -269l-64 -76q-68 -14 -72 -47l112 -84l8 -14q16 -5 24 9 l-8 65q8 48 -4 71h40l40 -42l4 -103q20 -95 60 -132q4 -29 -24 -38l-60 -24q-16 -5 -48 14l-48 76l-52 57l-4 14q-12 -10 -108 94h-16l-139 -94l-136 -57l-124 -19q-136 -4 -251 29l-132 56l-24 19v19l-112 70l-48 42l-24 33q-67 10 -91 62l-12 57q-28 52 -88 259v29 q-16 33 -16 71l4 4q-12 51 -8 183l60 279l16 24q28 113 91 249q68 95 140 170q184 137 256 166q227 70 231 52z" />
<glyph unicode="R" horiz-adv-x="1528" d="M-268 1606l5 -16q223 75 228 90l228 64q0 21 -46 26l-137 -10q-10 -16 -60 -16l-137 -64q-36 -48 -81 -74zM447 1088l10 -22q55 10 233 90l168 100l101 80l123 117l10 42q5 74 -10 132q-10 48 -107 79l-199 33h-126l-30 -22q20 -16 -46 -137v-38l-26 -63l-46 -201 l-25 -58l-20 -111zM97 1817l106 -5l15 5l123 -36q86 -5 151 10q15 16 20 75q26 20 113 0q25 -27 15 -37l30 -22l214 -21l40 -16l41 -5q25 16 55 11l112 -42l36 -54q101 -100 101 -116v-48l-20 -31l-26 -69l-30 -37l-76 -143q-56 -42 -51 -70q56 -47 117 -126l10 -106 q-15 -126 -15 -291l20 -58l5 -148q15 -5 15 -53q46 -127 76 -165l52 -57l71 -38l40 -36q86 -11 112 20l-6 -20q-15 5 -50 -16l-16 5l-60 -27q-56 6 -91 -11q-178 33 -274 218q-62 95 -82 402l15 211l20 80l-10 79l-10 21l-51 48q-106 -10 -131 0l-153 -32l-122 -42l-86 -43 l-76 -173q-97 -493 -163 -694q10 -16 0 -37q-25 -48 -35 -138l-61 -26q-35 -6 -45 10l5 38q20 16 25 57q-10 43 20 191q15 32 15 69l26 80l81 349q-5 42 15 106l-10 42q15 5 10 21l-101 -6l-21 28l5 26q91 21 162 69q16 5 37 121l15 291l-31 154q-41 90 -86 142l-71 -10 l-203 -69q-198 -96 -264 -106q-126 -10 -132 26l6 38q192 222 512 237z" />
<glyph unicode="S" horiz-adv-x="1256" d="M80 216q-4 -37 12 -78q17 -28 87 -79l92 -41l87 -9l79 5l16 9q16 -9 46 0l108 36l46 24l33 36q12 -9 87 78l63 115l24 115l-4 107l-33 78l-67 87l-95 78l-174 -101l-204 -147l-99 -97l-50 -64l-34 -60zM989 1923h33l112 -60l29 -37l-16 -41l-29 -23q-4 -93 -80 -93l-4 5 h-32l-38 -18l-133 -23l-58 -24q-66 0 -112 -18l-70 -50l-34 -46q-42 -14 -100 -106l-36 -106q-18 -18 36 -220l58 -78l179 -138q8 -6 100 31l124 65l125 51l41 27l54 55l100 60l8 -5l-8 -151l-41 -46l-171 4l-162 -73l-87 -56l-12 -18l4 -14l83 -74l24 -31q30 -69 42 -69 l22 -102q12 -60 -30 -207l-58 -106q-87 -114 -162 -143l-29 -4q-50 -42 -216 -65l-174 5l-113 28q-90 55 -116 78q-37 60 -28 69l4 101q8 33 70 143l29 45l25 10v10l21 9q83 78 266 193q58 41 186 101l21 19l-54 54q-175 111 -216 153l-37 31l-54 84l-29 64q4 14 -13 45l4 5 l-4 51l25 106l37 83l17 9l71 83l158 123l124 84q13 -4 46 32l33 9l83 46l87 33z" />
<glyph unicode="T" horiz-adv-x="1848" d="M-162 1747q11 9 66 -15l84 -9l164 9l15 24l25 3l70 -8l138 5l81 12l211 12l30 7q65 -4 116 8l8 44q0 12 43 28l77 8q15 -12 102 -8q22 -12 30 -40q21 -8 102 4l328 53l194 15q47 20 109 -12q51 -44 73 -104v-32l-62 20l-182 4l-19 -28l-18 -3q-80 31 -106 19 q-25 -16 -84 -19q-54 -9 -138 0q-33 -12 -135 -12l-15 -17l-29 -111l-73 -132l-4 -35l-58 -120l-11 -56l3 -17l-3 -15q22 -19 -4 -120q7 -15 -4 -111l-7 -20l-7 -108l4 -151q-15 -52 0 -220l-19 -191l44 -24q15 -28 0 -67l-29 -29l-29 -152v-51q-37 -32 -117 -48 q-22 -5 -29 12q7 60 0 68l7 24l11 127l-4 24l15 96l-4 28l18 275l8 363l14 231l-3 28l14 379q-11 63 -7 143l-11 12l-47 9l-307 -41l-88 -24l-91 -55v-16q33 -48 7 -64h-33l-80 28l-11 12q-25 4 -65 28q-48 8 -154 -4q-22 16 -47 20l-37 32q-47 7 -51 51z" />
<glyph unicode="U" horiz-adv-x="1040" d="M298 1822q79 -14 83 -68l-4 -46l-49 -100l-4 -36l-40 -100l-35 -227l-17 -50l-5 -50q-44 -191 -70 -364l-18 -45v-22l-17 -60v-45l-22 -82l-9 -99q-13 -19 -13 -127l22 -137q-5 -109 9 -109q22 -14 184 209l172 263q206 368 276 559l-4 9q31 96 26 118q14 14 44 141 l13 23l5 54l17 32v23l27 72q-5 19 13 78l22 54l40 145q-9 59 39 64q75 4 92 -28v-32l-22 -45l-8 -59l-18 -50l-9 -45q9 -13 -4 -63l-13 -37l-88 -158l-22 -64l-18 -105q-57 -176 -61 -214q0 -76 -57 -222l-18 -199l-31 -91q-9 -82 -35 -146l4 -27h9q27 23 88 154l114 273 l22 18l-22 -86v-23l-17 -36l-57 -173l-79 -163l-9 -41q-40 -82 -44 -114l-18 -32l-9 -76q-17 -23 -74 -51q-40 -13 -57 28q8 45 0 54l8 22l5 64l44 241v32l9 18l35 204q44 159 35 177l-13 -4l-176 -355l-198 -308l-119 -154l-35 -37q-83 -28 -96 41q-5 104 8 187l-13 17 l-9 105q-52 95 -35 159l22 299l35 309l18 55v27l57 245q9 51 0 87q18 86 18 195l13 55l53 54q52 36 110 41z" />
<glyph unicode="V" horiz-adv-x="1520" d="M121 1716l84 -11l44 -50q24 -14 34 -33l24 -39q-7 -22 3 -43l10 -15q11 -62 37 -122l34 -69l21 -64l70 -155v-14q17 -19 74 -195l28 -47l30 -90l54 -119l37 -126l65 -161l10 -51l9 -11v-17l21 -51q21 4 28 25l26 58q92 248 237 587v-36l-20 -40l-7 -40l-27 -65 q0 -17 -44 -125v-15l-13 -25l-58 -177v-14l-28 -79l-6 -43q-41 -98 -26 -212l-18 -37q-47 -47 -71 -50q-26 -8 -41 18q11 43 7 86l-26 108q-15 112 -126 454l-36 54q-38 101 -170 346l-135 226l-37 79l-31 40l-77 -4l-24 11q-20 25 -54 108l-36 33l-7 17l10 19l19 -11v11 q-19 0 -29 17q-21 -10 -30 11l-15 40l5 11h13l20 22l17 3q93 80 121 72zM1348 1911q125 -5 128 -66q3 -25 -7 -32v-33l14 -28q-41 -19 -54 -39l-20 -47l-34 -58v-14q-24 -15 -34 -58l-14 -57l-10 -19l-71 -240l-41 -116l-19 -36q-7 -40 -44 -107l-11 3l21 86l3 36l10 18 l3 29l31 79l3 33l14 32l23 119l15 11q-11 3 -8 39l21 86l30 237v66l-10 46l14 22z" />
<glyph unicode="W" horiz-adv-x="1872" d="M1014 1467v-3h5v3h-5zM183 1578l46 -3l7 -9l30 -8q0 -43 16 -43l3 -201q0 -20 20 -44v-44q-12 -18 -12 -90l8 -20l4 -204l8 -28l11 -486l15 8l76 186l-4 55l43 67q7 8 0 32l11 31l149 248l34 75l27 36l27 55q-4 17 26 83l38 63l73 166l12 36q-4 31 11 36l26 7l43 24 l27 31q34 4 49 -7l4 -13q-8 -27 0 -71l16 -43v-36l7 -3l23 -123v-59l38 -189v-28l30 -102v-44l13 -16l37 -205q23 -67 16 -75l7 -11q-4 -32 11 -67q-3 -44 12 -55q11 -9 39 35l98 204q47 131 65 150l-3 56l15 63l41 71q0 20 16 28l8 31v40l15 51l15 27l80 324l27 150 q-7 63 4 79l23 16q-4 8 11 32l57 7q24 32 35 32q65 8 83 -20v-24l-7 -8q-19 -67 11 -106l-30 -31l-30 -52l-12 -32l-54 -67l-68 -134l-30 -87l-11 -51q-51 -134 -85 -189q-22 -80 -50 -115l-4 -39l-7 -8l-12 -44l-30 -58l-11 -44l-31 -66l-11 -44l-69 -174q-23 -63 -19 -78 l-8 -9l-19 -79l-8 -87l-15 -46l-4 -56l-11 -32l-4 -86q-12 -52 -115 -91q-30 -9 -41 15q0 56 30 122v24q15 32 19 68q-8 36 4 106l-4 40l-19 27l-15 119l-27 91l-4 42l-38 123v20l-23 63l-46 221v32l-11 35v36l-15 67l-8 79l-16 39q-45 3 -106 -123l-76 -161l-134 -237 l-118 -249l-107 -272l3 -47l-7 -20l-4 -51l-38 -95q-54 -47 -80 -35q-12 -4 -23 27l19 75l-19 20l-4 71l8 51q-8 32 4 316l-8 44q0 23 19 59q0 27 -19 75l-8 208q0 40 -15 51q-69 -7 -80 5q7 35 0 103l-43 232l-26 64l-4 38l-67 -3l-20 12l5 24l30 7l71 44l31 8 q23 27 107 39z" />
<glyph unicode="X" horiz-adv-x="1128" d="M-31 1436q-11 22 24 76l25 12q50 59 68 64l46 51l4 28q100 76 131 67h30l20 -20l16 -47l73 -95l13 -29l28 -31q54 -93 78 -117q17 -48 47 -83l17 6l165 233l42 81l23 62v53l31 36l10 45q30 10 64 0l31 -28v-26l-13 -27q13 -62 -11 -108l-307 -394l-3 -25l39 -64l17 -54 l29 -29l55 -108l66 -103l29 -71l32 -43l134 -290q8 10 63 -76l11 -65l31 -36l4 -53l-13 -67l20 -61q-7 -41 -61 -63q-22 0 -25 17q-39 94 -30 169l-12 10l-12 48q9 23 -3 56l-64 166l-31 66l-40 40q-18 -3 -71 49q-104 192 -115 188l-27 16q-58 73 -70 103q-23 26 -80 35 l-39 -9l-72 -100l-30 -66l-168 -256l-71 -151q-5 -20 11 -32l-8 -22l4 -38l-38 -72q-30 -21 -34 -85l-9 -88l22 -146q6 -55 -17 -71h-59l-31 36q-15 48 26 89v21q-18 27 -26 77q8 92 -4 97l15 62l11 18q4 100 177 421l105 165l196 274l12 22q9 10 -20 55l-78 102l-87 137 l-52 58l-19 9h-43l-31 -14q-28 9 -35 0l-53 -29l-19 -28q-40 -17 -64 0z" />
<glyph unicode="Y" horiz-adv-x="1376" d="M-805 -225l13 -10v-46q-68 -250 84 -420l126 -106q196 -95 429 -114l95 11q25 14 50 14l29 15q62 5 72 15l154 90l13 20l55 34l130 150q68 100 151 266q72 156 199 494l179 617l13 25l-3 60l-17 -5l-101 -195l-93 -226q-21 -125 -83 -335l-59 -41q-84 -29 -97 6v31 q41 93 34 134l-72 331l-54 200l-10 3l-21 86l-25 55l-13 62l-70 179l-51 85l-43 20q-46 105 -62 110l-102 34q-28 10 -41 46v20l20 11h105q131 54 182 48q46 0 110 -79q75 -131 67 -145q84 -381 84 -506q75 -265 87 -369q21 -21 46 25q68 179 321 645l66 140l25 140l9 19 q43 21 50 145l52 122l25 135q-9 30 0 39l21 9q25 -9 33 0l42 -24l63 -10l17 -40q-30 -155 -76 -225q8 -10 -17 -66l-8 -70l-29 -80q3 -49 -64 -185l-4 -34l-21 -61l-16 -99l-93 -285q9 -5 -16 -70l-26 -41l-26 -56l-15 -54l-26 -145l-25 -80l-8 -65l-47 -140l-34 -71 l-12 -53l-34 -81q4 -36 -63 -150l-21 -25l-96 -170l-111 -145l-96 -85q-230 -166 -497 -211l-21 6q-161 -32 -375 4l-67 16l-181 75q-172 126 -181 295q0 275 72 331z" />
<glyph unicode="Z" horiz-adv-x="1704" d="M89 164v-7h5v7h-5zM885 1231l49 -7l194 154v19l-488 -13l-112 8l-48 -8q-88 0 -152 -8l-96 16l-72 -32h-120l42 -5l-92 -14q-12 31 -44 19l-8 43l-16 31q-4 99 8 167l24 80l8 68l32 79l11 75q37 6 37 -92q-8 -50 4 -56l28 6q43 -37 124 -49l181 -31l16 6q60 -12 93 6 l8 -12l4 -117q0 -19 32 -19l249 6q25 -30 69 -18q15 31 72 37l40 -6l133 24l96 7l20 12l4 -6l89 6l48 18l45 -6q20 -37 27 -24l16 18l49 19l28 -25q-4 -111 -28 -142l-97 -74l-48 -5l-25 -20q-39 20 -108 -37l-101 -93q-28 -5 -217 -166l-15 -31l-36 -19l-443 -437l-45 -31 l-79 -99l-20 -49l4 -31l60 -18q201 -67 409 -123q344 -112 536 -75l40 -31q81 25 144 25l45 31l36 6l60 49q68 31 72 -11q13 -75 -55 -216l-40 -26q-49 6 -85 -12q-4 -19 -92 -44l-121 8l-32 12l-137 -7l-17 12l-160 19l-89 31l-104 12q-24 18 -53 13l-28 18l-27 -5 q-8 11 -210 54q-97 7 -97 19l-23 -6l-129 12l-80 25q-25 -7 -96 19l-56 -7l-12 31l4 69q24 17 36 62l16 85l8 12q16 -6 84 44q23 30 164 142q25 49 161 128l44 62l161 154q37 57 76 88l12 23q101 113 142 100z" />
<glyph unicode="a" horiz-adv-x="1264" d="M141 204q-11 -10 21 -127l53 -64q43 0 106 69q155 181 203 261l31 64q-5 58 43 138l80 128l112 255l95 175l-5 27q-48 11 -117 -21l-117 -75l-133 -111q-80 -75 -186 -240q-123 -186 -186 -479zM1082 1396q96 0 122 -48v-16q-42 -37 -63 -96v-21l32 -16v-16 q-48 -32 -75 -85l-5 -21l-69 -107l-48 -138l-38 -69l-74 -202l-37 -213l-11 -154l5 -22q22 -5 27 11q59 133 80 138l80 32l48 75l21 10l-27 -133l-85 -191l-80 -64l-26 -96l5 -63q-16 -38 -74 -38q-96 -16 -102 160l6 261q32 175 21 186l-27 10l-42 -10l-32 -27l-96 -186 l-53 -59l-112 -175q-21 -43 -127 -64q-80 -11 -139 21q-111 91 -101 229q27 213 160 442l117 175l181 202l170 123l21 5l91 64l53 10q27 27 96 38l85 5l64 32q26 80 58 101z" />
<glyph unicode="b" horiz-adv-x="800" d="M149 258v-38l52 -130l30 -31l29 -13q31 0 36 21q19 91 124 341q73 105 173 383l-6 28l18 134q-12 18 0 127l-90 31h-45l-92 -67q-8 -33 -43 -53l-86 -11l5 -57l-75 -188q-12 -33 0 -86l-12 -23l-11 -88l11 -100l-5 -5q39 -96 0 -127l5 -21zM346 2368l49 -4q44 4 68 26 q99 21 124 -14l-51 -142l-73 -121l-30 -208l-33 -58l-22 -74q-13 -86 0 -162l-63 -138l-19 -70q-36 -30 -47 -96q11 -10 -26 -70q-32 -123 -12 -143q12 -6 30 11l25 36l104 87l69 18l66 43l100 36q36 39 79 25l19 -8l104 -9l21 -13l-14 -79q14 -4 0 -113l-25 -106l7 -26 l-37 -103l-18 -97l-43 -114v-33l-43 -90l-14 -51l-36 -70l-7 -51l-19 -36q-11 -86 -54 -178l-55 -71l12 78l-19 -4l-6 -25q-30 0 -42 -88l5 -66l-20 -12l-95 -33q-82 7 -179 50q-69 57 -87 149q-45 192 -54 348v144l23 53q-8 58 24 376q64 264 99 478l31 106v31 q61 118 98 411l11 19l64 242z" />
<glyph unicode="c" horiz-adv-x="1072" d="M540 1451l110 -11q21 21 84 -21q-31 -120 5 -178q-10 -37 -68 -37q-68 11 -68 26q10 48 0 58l-53 -26l-5 -21l-110 -100l-116 -168q-120 -236 -147 -494q11 -63 0 -105l21 -94l58 -131l100 -90q110 -68 226 -84q10 11 63 0l68 16q26 21 68 21l11 11l79 26q21 26 84 58 l78 78q11 42 32 48l26 -11q5 -42 -10 -63l-48 -68l-78 -68q-200 -90 -379 -95q-173 5 -278 53q-68 26 -157 115q-132 147 -142 357q16 210 58 331l84 205l110 189l173 210q58 63 121 63z" />
<glyph unicode="d" horiz-adv-x="1024" d="M113 319l6 -142l9 -37l21 -29q29 0 40 37l201 381l24 85l64 109l146 342l6 56l9 10l-4 15q-20 18 -146 -58q-20 -33 -75 -53q-156 -127 -169 -218l-32 -137q-39 -57 -100 -361zM580 1273q39 0 114 -37l12 4q79 162 99 247q160 502 169 629l16 10l66 -10q9 15 40 10 q30 -19 38 -43l-19 -127q-15 -18 -35 -137l-10 -14l-5 -44l-60 -189l-25 -52l-10 -48l-34 -81l-86 -270l-30 -71l-30 -48l-35 -136l-11 -139l-19 -51v-33l-11 -20l-5 -38l5 -5l-20 -56l-20 -125l-9 -22l-15 -176l-15 -33l10 -114h10q74 90 211 351l139 275 q-35 -118 -195 -460l-50 -86l-46 -105q-64 -80 -49 -165l-41 -62l-70 -34q-50 0 -55 25l10 38l30 37l5 305q36 198 30 245q36 139 10 153l-45 -6l-76 -27l-49 -42l-76 -105l-139 -332q-21 -30 -65 -24q-86 -20 -145 228v136q34 258 74 362q50 155 167 274l88 72l201 129 l30 28z" />
<glyph unicode="e" horiz-adv-x="816" d="M165 904l5 -16q27 -4 40 8l18 16q95 27 238 149q45 55 59 126q-5 81 -50 136q-58 -4 -188 -133q-86 -133 -99 -188l-14 -82zM-360 727l49 8l32 15l108 25l58 7l13 12h23l18 15q54 -7 90 32l22 118q-4 59 14 89l22 40l32 117l49 111q31 55 81 97l54 40l36 36q45 0 89 -21 l9 -26q167 -119 171 -252v-43l-31 -75h-9q0 -24 -18 -35l-45 -39q-27 -7 -72 -51l-49 -20q-14 -15 -171 -78l-32 -3l-76 -71q-27 -91 -18 -122q0 -98 23 -294q27 -66 18 -71l44 -117l63 -94l72 -82q72 -52 126 -64q90 -3 126 44q85 109 134 250l-13 -66l-31 -86l-50 -90 l-49 -52q-63 -36 -72 -26q-59 -4 -117 11l-85 38l-59 48q-116 122 -161 275q-50 200 -45 273l4 200l-22 17q-45 15 -72 -32l-90 8l-94 -19q-23 -23 -99 -16v19z" />
<glyph unicode="f" horiz-adv-x="1496" d="M874 1964v-13l44 43v12l-22 -12zM139 1410l165 -8l158 4l59 311l70 208q96 216 180 228l107 -8l22 -12l37 -5l44 -21l44 -47l11 -41v-17l-77 -77l-184 -141l-44 -13l-37 -76l-26 -89l-11 -21q-29 -124 -29 -149l14 -13l41 -8q4 8 187 -5q11 8 155 0q254 -25 419 -17 l147 -18l41 -20q11 8 51 -18q44 -51 44 -67q11 -30 -26 -43q-18 -42 -11 -55l-7 -5h-26l-51 18l-48 4l-180 42l-133 22l-88 8l-287 -4l-110 21h-40q-26 -21 -37 -8q-4 21 11 26l37 3q66 56 162 60l7 13l-26 3l-147 -3l-85 -35l-58 -76l-48 -302q7 -77 0 -102l-15 -76 q8 -43 -4 -51l4 -26q-11 -22 -7 -60l-11 -34l-8 -103q0 -20 19 -67l-8 -85l-29 -162l-11 -17l-15 -225q-3 -13 -84 -31l-41 9l-11 25l11 68l-3 13l14 81l-3 64l14 51l15 225l7 31q8 68 0 85l74 702q-18 30 -26 25l-140 26l-58 -4l-48 -17q-19 4 -70 -13l-48 5l-15 -10 q-55 0 -62 18q-7 55 18 89l122 9z" />
<glyph unicode="g" horiz-adv-x="1280" d="M155 -421h14v-12h-17zM113 591q-9 -27 17 -128l39 -66q67 -71 141 -89l42 11q81 57 162 94l139 105l56 57l69 115l34 123q3 32 -13 160q-47 121 -65 137l-37 34l-26 44l-42 34q-9 16 -85 -62l-125 -50q-16 11 -63 -27l-90 -110l-21 -12l-34 -77q-56 -44 -98 -293z M-337 -465l20 -7q102 34 153 30l-3 -23l16 -11l38 4q0 -27 69 -16l115 16l29 18q34 -11 69 5v-5l42 12q4 21 21 21l-3 -28l102 7l21 21l12 -21l48 4l16 23l39 5l-13 -23l4 -9l77 -7l21 7l30 -12h60l157 -27q81 21 93 0l69 -96l-9 -27l-55 -21l-51 11q-38 32 -60 28 q-12 21 -47 21l-9 -5l-25 16q-89 23 -144 23q-9 16 -56 16l-12 -5l-64 10q-69 -10 -209 6l-39 -16l-67 5q-18 -16 -137 -16q-51 -28 -85 -12l-137 -34l-33 -16l-4 7l-238 -51q0 23 17 23l-4 16l-17 12q-21 -12 -81 0q-42 -34 -166 -46l-17 -16l-111 -27l-17 -17l-157 -45 l-30 -21l-99 -34l-24 -22q-18 11 -48 0l-123 -76h-21l-51 -57l-35 -5q-34 -44 -46 -44l-18 -34l-51 -27l-63 -100l-5 -38l-8 -11l4 -61l42 -67l162 -77q166 -55 180 -67q-162 7 -354 106q-55 38 -64 61l-35 94v43q22 51 14 62l25 50l60 83q157 137 213 165q51 6 157 77h26 q127 78 528 199q127 34 187 28q94 34 209 45zM-19 -1489q17 -11 35 0l30 28l63 22l196 16l56 28h25l119 45l43 5l38 28h21l192 93l13 18l114 49l14 22l88 50l95 89l37 49l44 89l21 94l-17 121l-39 73l-72 94q-132 93 -196 100l-63 16l-201 16l-251 -11l-145 16l-51 23 q-116 77 -116 93l-37 73l-17 60q-4 89 29 178l48 60l148 123l-4 16q-68 27 -141 89l-51 71l-38 117l-9 77l9 126l38 156l30 66l102 155l13 32l-34 62q-8 55 39 61l93 5l21 16q22 -11 111 28l162 11l25 -5l81 12v-7q218 23 827 -5q37 21 204 67l4 -7l149 34l115 12 q34 0 51 -23l56 -71l13 -50l29 -51l-4 -34q-38 -4 -60 12q-13 0 -34 -44l-63 23q-81 9 -167 0q-16 16 -119 16l-42 -11l-128 -12l-90 23l-85 39l-21 39q-17 11 -204 -7q-26 11 -141 0q-51 -16 -132 -16l-98 -28l-21 -27l3 -16l95 -101l60 -127l25 -110l-18 -165l-37 -134 l-90 -122l-30 -16q0 -23 -140 -110q-9 -39 -22 -39q-72 -34 -80 -50l-64 -16q-47 -50 -111 -62l-12 -22l-51 -28q-35 -55 -53 -50q-67 -82 -84 -142q-13 -50 12 -123q47 -71 213 -87l264 4l234 -22l141 -49l26 -22l81 -44l93 -95l55 -88q48 -111 44 -139l-5 -126l-42 -116 l-39 -55q-34 -18 -55 -57q-21 0 -98 -71h-13l-12 -16l-86 -39l-94 -62h-21l-12 -16q-95 -50 -107 -39q5 -22 -201 -93l-46 -5l-26 -18l-67 -11q-74 -39 -282 -83l-38 7l-76 -34l-197 -5q-4 -18 -81 -18l-4 6q-208 -16 -250 -11q-34 -23 -51 -5l-17 -11l-22 5q0 27 86 34 l127 9l21 12q196 45 226 27q55 28 178 39z" />
<glyph unicode="h" horiz-adv-x="1328" d="M351 2056l45 -5q41 -36 32 -45q9 -30 -18 -95l4 -80l23 -43l37 -26l-37 -154v-30l-32 -65l-4 -115q13 -13 9 -82q-50 -85 -63 -154l8 -93l-8 -13l-18 -103l4 -18l-13 -119q13 -17 9 -39l-14 -26q-4 -72 -50 -106v-39q23 -4 32 9l36 39l168 227l344 380l23 60q67 13 135 8 l37 -21l-69 -265l-18 -39l-14 -110l10 -13l-22 -134l17 -29l5 -150q-5 -73 13 -150l14 -30q9 -42 0 -51l23 -81l22 -22q-4 -76 10 -81l36 -30l27 -77l40 -30l32 4l46 56q59 162 68 291l37 -60l-10 -95l5 -8l-9 -25q9 -73 -37 -168l-36 -29l-91 -26l-99 5q-118 46 -186 230 q-55 142 -55 322l5 17l-9 26l4 3q-18 266 5 432l-23 39l-32 30q-31 5 -44 -8l-146 -171q-54 -95 -181 -258q-127 -209 -199 -539l-31 -60q-5 -72 -18 -80q-92 -44 -123 -22l4 65l73 234l46 257l9 107l13 56l54 526q18 103 18 222q18 26 23 206l9 26l18 239l-4 25q9 18 -5 69 q32 94 86 102z" />
<glyph unicode="i" horiz-adv-x="616" d="M293 1279l53 -9l20 -19q58 -14 62 -32q-4 -79 15 -126q9 -10 -19 -55l-87 -98l-101 -227v-19l-15 -24l-96 -356q-34 -274 14 -279h15l96 65l169 167l139 153l-28 -61l-82 -120l-82 -112l-78 -83h-9l-15 -19q-77 -32 -120 -88q-63 -9 -63 24l-38 -5q-24 18 -28 148l13 172 l48 241l38 144l16 28l28 126l33 97l12 56q23 28 28 98q24 17 29 41q0 28 24 74q9 79 0 89zM597 476l6 -14l-11 4zM525 1929q24 8 101 -43l24 -45l-10 -47q33 -38 29 -46l-9 -51l-57 -24l-82 -79q-6 -23 -49 -64l-68 -23l-13 -19l-12 4l7 5l-7 65l64 121l33 97q16 112 49 149 z" />
<glyph unicode="j" horiz-adv-x="1008" d="M-462 -249h10v-39l-30 -84l-5 -117l38 -100l82 -74q79 -30 177 -54l99 5l131 40q173 92 289 239q180 242 265 520q50 175 64 281q24 147 32 388l35 157q-10 35 28 279l27 80l33 39q85 16 113 -18v-40l-42 -147q-15 -106 -33 -158q9 -4 -19 -118l-9 -122l-10 -22l-38 -277 l-12 -33l4 -8l-81 -324l-23 -64l-15 -15l-12 -48l-25 -35q10 -3 -80 -167l-94 -142l-70 -83l-108 -101q-214 -147 -378 -135q-236 -5 -320 64q-66 67 -75 102l-15 74q-9 39 20 148zM926 2190q28 6 39 -8l79 -49l27 -34l5 -35q-9 -87 4 -117l-13 -25l-56 -17 q-79 -52 -104 -88l-23 -8l-67 -67l-69 -21q-15 8 -62 0l-8 8l4 52l108 132l85 135l5 26q22 13 27 95z" />
<glyph unicode="k" horiz-adv-x="1000" d="M218 750l10 -74q21 -26 93 115v47l-66 66h-10zM249 2237q57 13 128 -28q27 -34 32 -100l-11 -221q-16 -55 -10 -114q-17 -41 -17 -108l-44 -121l-21 -108l-23 -263q-34 -108 -21 -195q87 28 115 -6l5 20l60 14q77 95 165 295l55 67q87 20 126 -46l-11 -67l-109 -195 l-83 -116l-32 -74v-141l21 -87q50 -88 38 -95l44 -81l111 -295q27 -34 77 -169l38 -66h16q17 0 82 161q23 108 33 108q66 13 105 -8q28 -12 33 -33l-33 -115l-6 -47l-60 -133q-33 -95 -28 -136q34 -74 28 -87q-28 -41 -99 -55l-61 14l-48 48l-13 80q-92 169 -98 209 q28 60 16 86q-16 41 -97 95l-171 424q-44 88 -66 102q-21 6 -72 -21l-37 -81l-100 -268q-32 -189 -55 -196q-126 -60 -164 -14v68l59 317v88l24 113l16 243l16 41l-5 19q33 169 21 176l33 162q0 92 28 275l-18 134l29 135l11 148q32 112 21 200z" />
<glyph unicode="l" horiz-adv-x="768" d="M358 2423q42 13 42 -29q93 -29 97 -42l-8 -35l13 -110l-9 -15q4 -33 -10 -52l-30 -48l-36 -76l-4 -62l-28 -67q-9 -149 -22 -168q8 -38 0 -116l-59 -129l-4 -100l-9 -30v-48l-13 -62q-4 -91 -14 -105v-57l-14 -53l-13 -101v-52q-13 0 -13 -58l4 -155l9 -58 q-18 -18 -18 -57q9 -10 -18 -100l-9 -129l9 -144l-9 -34l14 -57v-38h31l76 125l41 42l139 263l44 134l42 74l34 8l16 -24v-28l-33 -72l-46 -53l-39 -106l-58 -109v-15l-23 -33l-13 -44l-72 -129l-41 -50l-4 -14q-36 -53 -108 -71q-93 -15 -117 49q-17 22 -17 86 q-36 34 -40 143l9 53q-9 14 5 164l17 115l-4 14l17 104l4 93l18 72l24 196q-9 63 0 86q17 20 21 44l55 356l22 120v52l26 139l-4 96l17 48v52l24 37v30l22 95l-4 67l26 81l4 61q46 17 41 36z" />
<glyph unicode="m" horiz-adv-x="1456" d="M308 1557q47 -7 95 -42l12 -24l-28 -90l-4 -83l-49 -160v-37l-12 -22l-43 -298l-43 -174l10 -12q23 -6 50 41l173 299l298 459q16 30 16 84q6 17 38 17l81 -24l16 -36l-5 -58q-33 -61 -42 -144l-12 -66l-26 -71l-7 -47l-37 -132l-33 -190l5 -48l11 5l120 293 q130 226 238 482l27 120q151 17 174 -60l-23 -113v-83l-31 -204l-38 -810l6 -124l9 -13l38 23l70 114q28 60 44 125l27 12l-4 -143q-56 -102 -67 -161l-54 -107q-22 -49 -4 -78l-22 -23q-11 17 -86 -13q-27 13 -34 30q-38 -5 -38 35l-16 215l22 537l-6 12l23 269l-6 46 l-38 -6l-11 25l-5 107l-11 18l-12 -6l-130 -286l-125 -328q-101 -363 -107 -464l11 -84l-29 -25q-95 -10 -101 50l6 255l37 315l44 214v98q-23 11 -27 153l-17 -11l-65 -101l-42 -101l-180 -299q-119 -250 -152 -357l-60 -179l-15 -137q-28 -50 -139 -6v24q35 42 57 107 l97 524l17 119v107l11 54l11 245l-7 77l-38 12l-187 12l150 47q60 36 82 78l27 54l81 114q5 59 34 53z" />
<glyph unicode="n" horiz-adv-x="1288" d="M363 1454q152 -11 168 -43v-44q-27 -103 -38 -103l-11 -98l-65 -119l-6 -60l-27 -55l-81 -282l5 -11q17 -5 55 33l380 445l157 158q93 168 104 212q130 21 173 -44l-5 -32l-43 -44l-33 -87q-16 0 -76 -87l-38 -108l-44 -76v-28l-54 -97v-33l-43 -87q5 -27 -17 -38v-27 l-21 -49v-33l-55 -211v-33q-16 -16 -16 -54l5 -49q-21 -44 0 -239l38 -109l28 -22q21 0 49 28l92 124l157 283l152 234v-33l-124 -228l-87 -196l-44 -65l-65 -141l-27 -33l-27 -54l-71 -11q-49 -5 -119 38q-109 82 -115 250l6 217l27 152l60 239q60 142 54 158l-11 11l-59 5 q-39 11 -60 -27l-98 -136l-92 -98l-87 -141l-142 -320l-21 -142q-17 -38 -76 -38l-6 6l-38 -6l-43 28q-6 65 38 168l5 43l11 17l16 87l49 152l11 70l33 93l49 212l16 32l27 169q-76 32 -71 48q-10 44 28 104l92 141l27 76l27 33z" />
<glyph unicode="o" horiz-adv-x="928" d="M150 410l17 -160q69 -196 145 -232q16 -6 59 18l97 76q98 127 152 256l76 214v29q-22 13 -22 54q32 119 49 238l-5 12q37 279 -55 380l-27 -24l-70 12q-38 42 -81 12l-27 -47l-65 -48l-75 -124q-136 -368 -168 -577v-89zM371 1533h70l61 -24l53 -36l168 -18l65 -53 l15 -36l60 -47l17 -42l17 -100l-23 -119q6 -72 -16 -173l-22 -53l-38 -195q-59 -13 -59 -31l-92 -303l-27 -64l-92 -162q-103 -137 -189 -112q-71 -6 -119 12q-118 47 -174 165q-63 215 -47 268l4 166q11 102 71 351l54 136l6 36l33 60l15 59l49 113l87 147z" />
<glyph unicode="p" horiz-adv-x="1056" d="M284 121v-24q43 12 49 0l181 100l116 114q132 206 155 305l42 158l35 211l-6 61q-29 21 -122 -66q-66 -106 -104 -146q-210 -436 -242 -535l-38 -45zM340 1462l93 -8l59 -28q22 -44 22 -94l-5 -68l-61 -133l-5 -39q-33 -62 -44 -130l-17 -105l-60 -251q-17 -11 -38 -141 l-55 -150l-34 -161q22 -18 66 54l144 286l48 34l-5 32q12 74 51 107v16l86 174l17 73l50 71v18l137 256q73 91 83 158l28 11q155 10 169 -51v-23q-27 -32 -32 -71v-52l-17 -56l-27 -193l-31 -124l-28 -151l-17 -33q-7 -68 -61 -186l-49 -78l-55 -111l-94 -100l-100 -73 q-115 -83 -297 -106q-21 -5 -71 -107l-137 -341l-88 -267l-30 -156l-27 -74v-28q-67 -194 -94 -350q-12 -23 -111 -67q-16 -13 -49 22q-13 11 22 128l61 150v24l55 163l10 67l23 42l16 79l55 140l69 261l27 69l45 173l-12 34q-113 44 -79 111q69 163 189 229q6 49 38 145 l17 117l21 67l13 90l27 84l27 226l-11 29q17 46 11 108q-21 11 -6 162l27 71z" />
<glyph unicode="q" horiz-adv-x="912" d="M147 410l7 -40q28 -24 123 66q69 107 107 146q215 436 249 539l39 44l68 134v22q-45 -12 -51 0l-185 -101l-120 -113l-107 -178q-49 -78 -130 -497l7 -12zM972 1556q23 -16 29 -63q-13 -54 0 -66q78 -33 90 -56q12 -34 0 -66q-18 -51 -64 -108h-55l-12 -15v-39l-16 -29 l-56 -280l-29 -112l11 -27l-50 -192l-57 -128l-34 -173q-18 -16 -57 -175l-16 -27l-6 -66l-23 -41v-27l-33 -89q-6 -96 -34 -130l-56 -196l5 -51l-73 -217l-5 -51l-17 -27l-7 -51l-28 -80q5 -22 -16 -94l-29 -66l-51 -179q12 -73 -50 -79q-96 -8 -119 35v38l28 55l12 73 l22 61l12 57q-12 16 5 77l17 46l118 207l22 67l24 128l57 174l5 90q26 34 34 183l79 176l63 257q49 117 55 191q0 83 73 268l23 246l39 112l29 168q-24 18 -68 -56l-142 -280l-56 -39l7 -33q-12 -72 -51 -107v-16l-90 -175l-17 -73l-51 -72l-62 -134l-147 -241 q-12 -79 -46 -67q-155 -12 -173 51v22q30 33 34 73v49l18 57l11 112q25 100 32 162l17 39v33l61 237l57 127l39 57q-6 10 63 116l101 108l153 94q106 57 242 73l44 57q46 101 68 117h97z" />
<glyph unicode="r" horiz-adv-x="664" d="M267 1546l119 -11q34 -63 73 -81v-34q-34 -23 -6 -57l29 17l157 189l51 131q11 23 96 23q95 -12 95 -69v-91q-22 -57 -22 -120l-17 -40l-23 -149l-79 -23l-50 12l-12 17v74l-51 35l-21 28q-23 12 -68 -51q-152 -234 -243 -497q-28 -63 -101 -423l-73 -462 q-101 -58 -129 -6l33 217l51 217l112 703l34 314q17 23 11 114z" />
<glyph unicode="s" horiz-adv-x="1104" d="M-39 193q0 -115 29 -138l46 -35q98 -29 109 -46l104 6q75 0 126 23l52 17q58 81 98 184v138q-29 115 -40 115l-35 29l-34 69l-29 23l-46 75l-29 -6l-86 -75q-35 -51 -69 -80l-115 -138zM669 1614l115 -23l11 -12v-40l-80 -69q-81 -64 -92 -58l-104 -126l-11 -41l-69 -97 q-58 -144 28 -271q41 -23 219 92l63 75l127 109l180 119l-36 -234l-81 29l-69 -11q-58 -35 -98 -92l-69 -29l-138 -98l-34 -52v-40l92 -167l40 -132l17 -23l23 -133l-17 -109l-35 -75l-74 -80l-64 -17q-69 -64 -236 -81l-189 12l-69 23h-41q-120 86 -109 149q23 132 69 196 l104 132l149 155l17 6l104 104l-69 138l-12 80q-17 12 -17 87l12 34q-6 29 17 132q57 98 75 104l17 46l63 52l35 46q207 184 236 190z" />
<glyph unicode="t" horiz-adv-x="776" d="M-181 1113h106l10 -10q185 -15 219 29l58 252q43 107 48 160q63 49 126 5q-24 -53 -29 -140l-34 -88q-34 -145 -29 -179l68 -5q54 -39 68 -34q194 -5 214 -34q34 10 189 0l44 -15l19 5l58 -14l-5 -34h-92q-24 19 -73 19l-140 5q-15 14 -54 10q-170 -10 -262 0 q-73 -15 -68 -54l-29 -174l-10 -219l-14 -68q10 -19 -5 -77l10 -122l-5 -82l39 -20q29 0 39 20l155 276l92 209l73 199l24 5q5 -20 -34 -97v-20l-24 -43l-44 -199l-34 -68q-5 -39 -34 -97l-77 -151l-20 -24q0 -19 -43 -82l-44 -117q-5 -73 -34 -73l-165 -63q-68 0 -78 136 l10 223l24 165l5 92l19 93l10 111l20 54l-5 5l43 194q-4 34 10 53l-10 10l-169 -15l-15 10q-10 10 -155 0l-15 19l5 25q29 4 44 34z" />
<glyph unicode="u" horiz-adv-x="1456" d="M37 1303q12 41 47 59l127 23l28 17q116 0 134 -28l-6 -42l-12 -11l-75 -247l-52 -217v-53l-23 -70l-6 -71l-35 -123v-40l-17 -66l-23 -193q12 -35 0 -93q18 -18 12 -53q17 -6 80 81l174 271l138 182l104 216l17 95l162 375l70 205q74 35 150 -29v-30q-23 -23 -115 -288 l-30 -140l-22 -53l-12 -82l-41 -129l-35 -246q-11 -112 30 -317q86 -199 110 -193q109 -24 242 46l92 83l116 169l17 7l18 -18q22 -35 -145 -258l-86 -82q-99 -42 -127 -36l-168 6l-69 36q-75 64 -127 182q-41 111 -41 176l6 305l-6 6q-23 17 -92 -42l-203 -340l-97 -217 l-18 -70q-40 -48 -144 -48l-23 18q-58 -18 -75 59l6 187q-12 18 0 65l92 516l121 516l-6 36l-132 -18z" />
<glyph unicode="v" horiz-adv-x="1008" d="M-64 1090l41 19q30 -14 40 16l30 95l-5 69q45 60 67 45l79 -4q23 -16 73 -11l16 -21q-11 -74 0 -84q-16 -29 -16 -219l5 -94l29 -110l-12 -150q12 -20 0 -45q-50 -59 -33 -105l40 -258q28 0 78 99l321 663q68 319 79 324l-6 95l17 30q102 -11 129 -41l25 -73l-35 -131 q-85 -90 -107 -143l-40 -125l-28 -36l-85 -74l-67 -150q-40 -124 -62 -155l-6 -39l-96 -204l-17 -60l-62 -144l-22 -136l6 -5l-12 -24l-79 -25q-27 -17 -55 30q11 244 -7 328l-44 668l-23 134l-28 26l-110 -9l-18 4v30z" />
<glyph unicode="w" horiz-adv-x="1160" d="M96 1357q93 5 110 -60l-17 -375v-190q-35 -185 -24 -217q19 -60 12 -212l12 -16h17q12 -6 52 81q169 446 279 674l-7 244l24 22h81l47 -33l12 -59l-7 -33q17 -27 12 -120l-46 -239l-6 -211q-34 -191 -24 -256l24 6l23 27l301 706q-17 5 111 489l51 5l81 -48 q-10 -120 -28 -147q11 -22 0 -49q-70 -82 -93 -141l-6 -33l-69 -65l-6 -27l-29 -38l-105 -277l-17 -22l-5 -38l-76 -217l-52 -93l-6 -32l-69 -169l-6 -43l-12 -16l-34 -131q0 -54 -24 -92l-11 -103q-29 -28 -64 -33h-46l-12 16v55l17 59v49q18 44 41 201q11 218 28 288 l-5 38q29 218 17 353l-17 49l-23 -22l-41 -92l-63 -185l-12 -76l-99 -206l-86 -277l5 -82l-29 -32l-40 -11l-12 -11q-46 -11 -64 22l12 114q11 483 -6 1010l-12 22l-85 33q-24 38 5 141q12 -6 52 38q5 71 17 76z" />
<glyph unicode="x" horiz-adv-x="1320" d="M-18 1238q-11 20 28 67l28 12q51 51 70 55l44 47l4 24q102 67 130 59h31l20 -16l16 -43l74 -83l12 -27l28 -28q55 -82 79 -102q15 -43 47 -75l16 4l165 209l43 71l24 55v47l28 31l11 40q32 8 63 0l32 -24v-23l-12 -24q12 -55 -12 -95l-307 -350l-4 -24l40 -55l19 -47 l28 -28l55 -94l67 -91l27 -63l32 -39l134 -256q8 8 63 -67l12 -59l31 -32l4 -47l-12 -59l20 -55q-8 -36 -63 -55q-20 0 -24 15q-39 83 -31 150l-12 8l-12 43q8 20 -4 51l-63 146l-31 59l-40 36q-19 -4 -71 43q-102 169 -114 165l-27 16q-59 63 -71 91q-24 23 -79 31l-39 -8 l-71 -90l-32 -59l-169 -225l-71 -134q-4 -19 12 -27l-8 -20l4 -35l-36 -63q-31 -20 -35 -75l-8 -79l20 -130q8 -47 -16 -59h-63l-35 28q-12 43 27 78v20q-20 24 -27 67q7 83 -4 87l15 55l12 16q4 90 185 374l103 145l197 245l11 19q8 8 -19 48l-79 90l-87 122l-51 51l-20 8 h-43l-31 -12q-28 8 -36 0l-51 -27l-20 -24q-43 -15 -71 0z" />
<glyph unicode="y" horiz-adv-x="840" d="M-787 -491h11v-51l-33 -103l-5 -149l43 -125l93 -94q94 -38 209 -65h81l100 21l108 44q83 50 170 127l144 154q136 203 185 323q88 197 159 460q39 187 60 417l11 27v120l-11 18v104l-32 60l-22 -6l-49 -60l-143 -368l-49 -203q-6 -136 -39 -169q-92 -77 -121 -27 q-11 11 29 104q0 110 22 197l10 368l-32 263l-23 82h-11l-22 -38q-38 -11 -55 -49l-38 27l6 87l10 22l6 60l38 110q-11 71 22 77q56 5 110 -17q28 -60 60 -301l28 -450l16 -21l16 16l62 143l38 169l306 625l22 28q100 21 132 -22v-49l-50 -187q-16 -132 -38 -197 q11 -6 -22 -148l-11 -154l-11 -27l-43 -346l-17 -44l6 -10l-94 -407l-28 -76l-16 -22l-16 -60l-28 -45q11 -5 -92 -208l-111 -180l-81 -105l-127 -125q-252 -182 -444 -171q-274 -5 -372 82q-77 83 -88 127l-17 93q-11 50 22 186z" />
<glyph unicode="z" horiz-adv-x="1192" d="M-49 1172l28 113l55 34l62 -21l56 14l104 22l208 43l96 14l40 7h64q117 41 129 26q95 -27 128 -185q6 -67 -16 -73h-29l-39 -34l-50 -60q-11 0 -225 -192l-140 -160l-6 -21l-135 -172l-39 -62v-5l68 20l22 26q106 40 174 87l258 46v-6q68 20 157 -20q141 -86 169 -306 q17 -153 -34 -280v167q-67 180 -89 180l-107 53l-79 -7l-125 -12l-72 -40q-48 -8 -152 -24l-56 -40l-104 -40l-104 -88l-151 -175q-44 -96 -66 -80l-34 139q-6 38 17 153l51 33l55 67l230 354l129 172l68 121l33 31l60 113l16 56l-312 -98l-84 -9l-5 -15q-73 -12 -124 28 l-89 73z" />
<glyph unicode="&#xaa;" horiz-adv-x="1264" d="M141 204q-11 -10 21 -127l53 -64q43 0 106 69q155 181 203 261l31 64q-5 58 43 138l80 128l112 255l95 175l-5 27q-48 11 -117 -21l-117 -75l-133 -111q-80 -75 -186 -240q-123 -186 -186 -479zM1082 1396q96 0 122 -48v-16q-42 -37 -63 -96v-21l32 -16v-16 q-48 -32 -75 -85l-5 -21l-69 -107l-48 -138l-38 -69l-74 -202l-37 -213l-11 -154l5 -22q22 -5 27 11q59 133 80 138l80 32l48 75l21 10l-27 -133l-85 -191l-80 -64l-26 -96l5 -63q-16 -38 -74 -38q-96 -16 -102 160l6 261q32 175 21 186l-27 10l-42 -10l-32 -27l-96 -186 l-53 -59l-112 -175q-21 -43 -127 -64q-80 -11 -139 21q-111 91 -101 229q27 213 160 442l117 175l181 202l170 123l21 5l91 64l53 10q27 27 96 38l85 5l64 32q26 80 58 101z" />
<glyph unicode="&#xad;" d="M34 728l64 -12l96 23l8 11l209 50h123l86 -39l36 -50l13 -33q6 -39 -9 -50l-67 -12l-33 -44q-50 -12 -76 22q-122 11 -378 -6l-54 40q-18 0 -52 50q0 38 34 50z" />
<glyph unicode="&#xba;" horiz-adv-x="928" d="M150 410l17 -160q69 -196 145 -232q16 -6 59 18l97 76q98 127 152 256l76 214v29q-22 13 -22 54q32 119 49 238l-5 12q37 279 -55 380l-27 -24l-70 12q-38 42 -81 12l-27 -47l-65 -48l-75 -124q-136 -368 -168 -577v-89zM371 1533h70l61 -24l53 -36l168 -18l65 -53 l15 -36l60 -47l17 -42l17 -100l-23 -119q6 -72 -16 -173l-22 -53l-38 -195q-59 -13 -59 -31l-92 -303l-27 -64l-92 -162q-103 -137 -189 -112q-71 -6 -119 12q-118 47 -174 165q-63 215 -47 268l4 166q11 102 71 351l54 136l6 36l33 60l15 59l49 113l87 147z" />
<glyph unicode="&#x152;" horiz-adv-x="2760" d="M1412 985l4 -4l82 25l16 45l19 326l12 42l-4 161q-27 45 -23 62h-39q-75 -17 -150 -21l-54 9q-24 8 -32 32v22l16 16l44 -13l82 -12l39 9l19 -5l55 12l47 70l20 71l28 8l4 -4h11q8 20 39 25l66 -17l40 -58q-8 -20 0 -28l67 12l43 20q15 -4 193 46l206 29l24 16l188 25 l24 -3l47 3l35 13l44 -4l19 8l35 -8l56 4l15 8q43 -8 66 0v-24l-19 -75q-19 0 -43 -38q-36 -4 -55 -24q-35 8 -164 0q-146 24 -197 17q-90 0 -195 -22l-13 -7q-43 -9 -51 0l-7 -9q-98 -12 -287 -61l-62 -25q-24 -46 -67 -257l-35 -268q-8 -83 16 -92l203 38l32 12 q3 -7 71 21l114 13q19 -13 54 -9q129 20 424 29l183 -25l-3 -41l-251 5l-27 -9l-251 -21l-224 -37l-8 -8l-196 -42l-87 -25q-26 -25 -39 -53l-11 -120l3 -29l-15 -78q8 -71 -20 -136q9 -18 0 -100l-8 -16l-7 -70l4 -13l-32 -149l-8 -99l24 -12l12 8h39l114 21l23 8l16 17 q19 -5 27 7q8 -7 114 21l153 13l126 33q43 -4 101 12l4 -4l146 13q23 12 98 7q39 -7 46 -20h16v-25q-66 -25 -74 -16l-134 -54l-23 -25l-63 -8q-47 -37 -302 -58q-86 -41 -98 -33q-67 8 -165 0l-50 -17l-90 5l-28 16v16q-19 9 -28 50q-58 -53 -74 -45q-35 0 -35 17l19 161 q4 57 -11 65v50l15 62q-8 54 0 223l16 83l12 215l-8 4q-35 -17 -90 -17l-16 9q-8 33 -20 33l-121 -38l-85 -4l-12 13q-5 37 23 37h43zM430 1598l126 -25l45 -37l19 -100l13 -12l-32 -111l19 -56l-32 -26h-58l-100 -32l-32 -25q-81 -11 -113 -80l-103 -217q-25 -130 -56 -186 l-7 -280l38 -162l65 -118l63 -62l100 -38h108l63 19q177 119 228 218q81 131 120 217l50 156l12 12v25l-25 -12q-82 -211 -151 -306l-44 -55q-33 6 -33 19l33 106q57 93 119 317q58 248 71 253l25 231q0 26 -32 82l12 49l-5 25l12 168q-12 130 -83 217l-56 -7q-19 0 -76 -80 q-132 -56 -158 12q-7 75 45 149q-19 100 68 81l32 -7q39 26 203 0l38 -17l69 -57q71 -100 89 -180l13 -136q19 -38 12 -106l20 -37l-7 -30q32 -145 39 -269q-20 -187 -45 -273q-57 -199 -89 -248q-57 -93 -71 -143l-93 -156l-70 -63l-44 -68l-76 -74l-88 -56 q-58 -31 -165 -39q-449 8 -486 468v167l62 348l56 143l12 50l83 194l90 135l88 107z" />
<glyph unicode="&#x153;" horiz-adv-x="1744" d="M1093 904l5 -16q27 -4 40 8l18 16q95 27 238 149q45 55 59 126q-5 81 -50 136q-58 -4 -188 -133q-86 -133 -99 -188l-14 -82zM568 727l49 8l32 15l108 25l58 7l13 12h23l18 15q54 -7 90 32l22 118q-4 59 14 89l22 40l32 117l49 111q31 55 81 97l54 40l36 36q45 0 89 -21 l9 -26q167 -119 171 -252v-43l-31 -75h-9q0 -24 -18 -35l-45 -39q-27 -7 -72 -51l-49 -20q-14 -15 -171 -78l-32 -3l-76 -71q-27 -91 -18 -122q0 -98 23 -294q27 -66 18 -71l44 -117l63 -94l72 -82q72 -52 126 -64q90 -3 126 44q85 109 134 250l-13 -66l-31 -86l-50 -90 l-49 -52q-63 -36 -72 -26q-59 -4 -117 11l-85 38l-59 48q-116 122 -161 275q-50 200 -45 273l4 200l-22 17q-45 15 -72 -32l-90 8l-94 -19q-23 -23 -99 -16v19zM150 410l17 -160q69 -196 145 -232q16 -6 59 18l97 76q98 127 152 256l76 214v29q-22 13 -22 54q32 119 49 238 l-5 12q37 279 -55 380l-27 -24l-70 12q-38 42 -81 12l-27 -47l-65 -48l-75 -124q-136 -368 -168 -577v-89zM371 1533h70l61 -24l53 -36l168 -18l65 -53l15 -36l60 -47l17 -42l17 -100l-23 -119q6 -72 -16 -173l-22 -53l-38 -195q-59 -13 -59 -31l-92 -303l-27 -64l-92 -162 q-103 -137 -189 -112q-71 -6 -119 12q-118 47 -174 165q-63 215 -47 268l4 166q11 102 71 351l54 136l6 36l33 60l15 59l49 113l87 147z" />
<glyph unicode="&#x2000;" horiz-adv-x="1213" />
<glyph unicode="&#x2001;" horiz-adv-x="2426" />
<glyph unicode="&#x2002;" horiz-adv-x="1213" />
<glyph unicode="&#x2003;" horiz-adv-x="2426" />
<glyph unicode="&#x2004;" horiz-adv-x="808" />
<glyph unicode="&#x2005;" horiz-adv-x="606" />
<glyph unicode="&#x2006;" horiz-adv-x="404" />
<glyph unicode="&#x2007;" horiz-adv-x="404" />
<glyph unicode="&#x2008;" horiz-adv-x="303" />
<glyph unicode="&#x2009;" horiz-adv-x="485" />
<glyph unicode="&#x200a;" horiz-adv-x="134" />
<glyph unicode="&#x2010;" d="M34 728l64 -12l96 23l8 11l209 50h123l86 -39l36 -50l13 -33q6 -39 -9 -50l-67 -12l-33 -44q-50 -12 -76 22q-122 11 -378 -6l-54 40q-18 0 -52 50q0 38 34 50z" />
<glyph unicode="&#x2011;" d="M34 728l64 -12l96 23l8 11l209 50h123l86 -39l36 -50l13 -33q6 -39 -9 -50l-67 -12l-33 -44q-50 -12 -76 22q-122 11 -378 -6l-54 40q-18 0 -52 50q0 38 34 50z" />
<glyph unicode="&#x2012;" d="M34 728l64 -12l96 23l8 11l209 50h123l86 -39l36 -50l13 -33q6 -39 -9 -50l-67 -12l-33 -44q-50 -12 -76 22q-122 11 -378 -6l-54 40q-18 0 -52 50q0 38 34 50z" />
<glyph unicode="&#x2013;" horiz-adv-x="1024" d="M0 569v231h1007v-231h-1007z" />
<glyph unicode="&#x2014;" horiz-adv-x="2048" d="M0 569v231h2031v-231h-2031z" />
<glyph unicode="&#x2019;" horiz-adv-x="536" d="M201 2102q30 7 40 -13l83 -79l30 -56l5 -57q-10 -141 4 -192l-14 -42l-59 -28q-84 -85 -109 -142l-24 -14l-68 -106l-73 -37q-14 16 -62 0l-12 16l6 85l112 212l87 219l5 43q25 21 29 156z" />
<glyph unicode="&#x2026;" horiz-adv-x="1488" d="M1347 1204q61 14 68 -26q7 -28 -41 -102q-95 -100 -110 -94l-19 -101l-69 -94q-96 -48 -109 -74q-54 -22 -81 40q-14 27 54 108l232 242l54 88zM851 1204q61 14 68 -26q7 -28 -41 -102q-95 -100 -110 -94l-19 -101l-69 -94q-96 -48 -109 -74q-54 -22 -81 40 q-14 27 54 108l232 242l54 88zM355 1204q61 14 68 -26q7 -28 -41 -102q-95 -100 -110 -94l-19 -101l-69 -94q-96 -48 -109 -74q-54 -22 -81 40q-14 27 54 108l232 242l54 88z" />
<glyph unicode="&#x202f;" horiz-adv-x="485" />
<glyph unicode="&#x205f;" horiz-adv-x="606" />
<glyph unicode="&#x2122;" horiz-adv-x="3400" d="M2180 1475h14l24 -22q53 -22 63 -3l28 96l11 7q25 -3 35 8l-21 132l14 19l88 -5l83 -46q7 -10 -14 -32l-14 -61q4 -40 -7 -68l4 -8l-17 -89l6 -133l18 -67l17 -191l39 -232q14 -98 14 -191l10 -53q25 4 35 36q158 408 232 533l-50 -154l-59 -154l-3 -25l-56 -147l-32 -65 l-28 -103l-18 -112l4 -25q-11 -17 -11 -154l-34 -68q7 -47 -71 -64q-31 3 -31 10l4 40l10 21q7 54 17 68v18l11 26q21 82 14 93l21 15l-4 20l-10 -3l-7 32l3 4l-17 294l-18 100l-6 76l3 10l-17 93l3 4l-7 68l-7 11q-42 283 -60 308q-20 3 -31 -25l-147 -315 q-35 -100 -56 -144q-70 -215 -74 -276l-49 -154l-38 -71l-18 -83l-10 -22l4 -71l-11 -18l-10 -51q7 -3 0 -64q-15 -24 -60 -36q-48 -7 -52 90v35l14 36l3 33l28 97l88 196l31 76l17 78l14 22l53 133l7 65q-11 89 -7 150l14 39l10 75l7 29q10 15 50 118q7 29 0 47l7 26l6 64 q-6 10 4 54zM3100 1801l32 -4l52 -17l11 -15l-11 -61q11 -14 7 -46l-13 -115l-14 -65q-7 -47 0 -154l-11 -168l4 -126l-4 -118l-7 -22l4 -136l-7 -50l7 -262l-4 -3q14 -72 18 -172l10 -25q24 -11 77 78q119 205 161 298l7 -11l-4 -57l-24 -43l-10 -36l-81 -151l-28 -39v-10 l-31 -61l-22 -61q-21 -32 -28 -79l-3 -72l-56 -43h-11q-80 -75 -136 -83q-45 0 -45 15q0 25 14 36l48 50l26 36q-22 365 0 813l-4 15l10 254q-6 58 4 83l-4 115q-6 7 -28 -15l-88 -93l-7 -22l-21 4v18l28 61l63 201l18 82l10 18l50 154l3 89zM-162 1747q11 9 66 -15l84 -9 l164 9l15 24l25 3l70 -8l138 5l81 12l211 12l30 7q65 -4 116 8l8 44q0 12 43 28l77 8q15 -12 102 -8q22 -12 30 -40q21 -8 102 4l328 53l194 15q47 20 109 -12q51 -44 73 -104v-32l-62 20l-182 4l-19 -28l-18 -3q-80 31 -106 19q-25 -16 -84 -19q-54 -9 -138 0 q-33 -12 -135 -12l-15 -17l-29 -111l-73 -132l-4 -35l-58 -120l-11 -56l3 -17l-3 -15q22 -19 -4 -120q7 -15 -4 -111l-7 -20l-7 -108l4 -151q-15 -52 0 -220l-19 -191l44 -24q15 -28 0 -67l-29 -29l-29 -152v-51q-37 -32 -117 -48q-22 -5 -29 12q7 60 0 68l7 24l11 127 l-4 24l15 96l-4 28l18 275l8 363l14 231l-3 28l14 379q-11 63 -7 143l-11 12l-47 9l-307 -41l-88 -24l-91 -55v-16q33 -48 7 -64h-33l-80 28l-11 12q-25 4 -65 28q-48 8 -154 -4q-22 16 -47 20l-37 32q-47 7 -51 51z" />
<glyph unicode="&#xe000;" horiz-adv-x="1590" d="M0 1590h1590v-1590h-1590v1590z" />
<glyph unicode="&#xfb01;" horiz-adv-x="2112" d="M1789 1279l53 -9l20 -19q58 -14 62 -32q-4 -79 15 -126q9 -10 -19 -55l-87 -98l-101 -227v-19l-15 -24l-96 -356q-34 -274 14 -279h15l96 65l169 167l139 153l-28 -61l-82 -120l-82 -112l-78 -83h-9l-15 -19q-77 -32 -120 -88q-63 -9 -63 24l-38 -5q-24 18 -28 148 l13 172l48 241l38 144l16 28l28 126l33 97l12 56q23 28 28 98q24 17 29 41q0 28 24 74q9 79 0 89zM2093 476l6 -14l-11 4zM2021 1929q24 8 101 -43l24 -45l-10 -47q33 -38 29 -46l-9 -51l-57 -24l-82 -79q-6 -23 -49 -64l-68 -23l-13 -19l-12 4l7 5l-7 65l64 121l33 97 q16 112 49 149zM874 1964v-13l44 43v12l-22 -12zM139 1410l165 -8l158 4l59 311l70 208q96 216 180 228l107 -8l22 -12l37 -5l44 -21l44 -47l11 -41v-17l-77 -77l-184 -141l-44 -13l-37 -76l-26 -89l-11 -21q-29 -124 -29 -149l14 -13l41 -8q4 8 187 -5q11 8 155 0 q254 -25 419 -17l147 -18l41 -20q11 8 51 -18q44 -51 44 -67q11 -30 -26 -43q-18 -42 -11 -55l-7 -5h-26l-51 18l-48 4l-180 42l-133 22l-88 8l-287 -4l-110 21h-40q-26 -21 -37 -8q-4 21 11 26l37 3q66 56 162 60l7 13l-26 3l-147 -3l-85 -35l-58 -76l-48 -302 q7 -77 0 -102l-15 -76q8 -43 -4 -51l4 -26q-11 -22 -7 -60l-11 -34l-8 -103q0 -20 19 -67l-8 -85l-29 -162l-11 -17l-15 -225q-3 -13 -84 -31l-41 9l-11 25l11 68l-3 13l14 81l-3 64l14 51l15 225l7 31q8 68 0 85l74 702q-18 30 -26 25l-140 26l-58 -4l-48 -17 q-19 4 -70 -13l-48 5l-15 -10q-55 0 -62 18q-7 55 18 89l122 9z" />
<glyph unicode="&#xfb02;" horiz-adv-x="2264" d="M1854 2423q42 13 42 -29q93 -29 97 -42l-8 -35l13 -110l-9 -15q4 -33 -10 -52l-30 -48l-36 -76l-4 -62l-28 -67q-9 -149 -22 -168q8 -38 0 -116l-59 -129l-4 -100l-9 -30v-48l-13 -62q-4 -91 -14 -105v-57l-14 -53l-13 -101v-52q-13 0 -13 -58l4 -155l9 -58 q-18 -18 -18 -57q9 -10 -18 -100l-9 -129l9 -144l-9 -34l14 -57v-38h31l76 125l41 42l139 263l44 134l42 74l34 8l16 -24v-28l-33 -72l-46 -53l-39 -106l-58 -109v-15l-23 -33l-13 -44l-72 -129l-41 -50l-4 -14q-36 -53 -108 -71q-93 -15 -117 49q-17 22 -17 86 q-36 34 -40 143l9 53q-9 14 5 164l17 115l-4 14l17 104l4 93l18 72l24 196q-9 63 0 86q17 20 21 44l55 356l22 120v52l26 139l-4 96l17 48v52l24 37v30l22 95l-4 67l26 81l4 61q46 17 41 36zM874 1964v-13l44 43v12l-22 -12zM139 1410l165 -8l158 4l59 311l70 208 q96 216 180 228l107 -8l22 -12l37 -5l44 -21l44 -47l11 -41v-17l-77 -77l-184 -141l-44 -13l-37 -76l-26 -89l-11 -21q-29 -124 -29 -149l14 -13l41 -8q4 8 187 -5q11 8 155 0q254 -25 419 -17l147 -18l41 -20q11 8 51 -18q44 -51 44 -67q11 -30 -26 -43q-18 -42 -11 -55 l-7 -5h-26l-51 18l-48 4l-180 42l-133 22l-88 8l-287 -4l-110 21h-40q-26 -21 -37 -8q-4 21 11 26l37 3q66 56 162 60l7 13l-26 3l-147 -3l-85 -35l-58 -76l-48 -302q7 -77 0 -102l-15 -76q8 -43 -4 -51l4 -26q-11 -22 -7 -60l-11 -34l-8 -103q0 -20 19 -67l-8 -85l-29 -162 l-11 -17l-15 -225q-3 -13 -84 -31l-41 9l-11 25l11 68l-3 13l14 81l-3 64l14 51l15 225l7 31q8 68 0 85l74 702q-18 30 -26 25l-140 26l-58 -4l-48 -17q-19 4 -70 -13l-48 5l-15 -10q-55 0 -62 18q-7 55 18 89l122 9z" />
<glyph unicode="&#xfb03;" horiz-adv-x="3608" d="M3285 1279l53 -9l20 -19q58 -14 62 -32q-4 -79 15 -126q9 -10 -19 -55l-87 -98l-101 -227v-19l-15 -24l-96 -356q-34 -274 14 -279h15l96 65l169 167l139 153l-28 -61l-82 -120l-82 -112l-78 -83h-9l-15 -19q-77 -32 -120 -88q-63 -9 -63 24l-38 -5q-24 18 -28 148 l13 172l48 241l38 144l16 28l28 126l33 97l12 56q23 28 28 98q24 17 29 41q0 28 24 74q9 79 0 89zM3589 476l6 -14l-11 4zM3517 1929q24 8 101 -43l24 -45l-10 -47q33 -38 29 -46l-9 -51l-57 -24l-82 -79q-6 -23 -49 -64l-68 -23l-13 -19l-12 4l7 5l-7 65l64 121l33 97 q16 112 49 149zM2370 1964v-13l44 43v12l-22 -12zM1635 1410l165 -8l158 4l59 311l70 208q96 216 180 228l107 -8l22 -12l37 -5l44 -21l44 -47l11 -41v-17l-77 -77l-184 -141l-44 -13l-37 -76l-26 -89l-11 -21q-29 -124 -29 -149l14 -13l41 -8q4 8 187 -5q11 8 155 0 q254 -25 419 -17l147 -18l41 -20q11 8 51 -18q44 -51 44 -67q11 -30 -26 -43q-18 -42 -11 -55l-7 -5h-26l-51 18l-48 4l-180 42l-133 22l-88 8l-287 -4l-110 21h-40q-26 -21 -37 -8q-4 21 11 26l37 3q66 56 162 60l7 13l-26 3l-147 -3l-85 -35l-58 -76l-48 -302 q7 -77 0 -102l-15 -76q8 -43 -4 -51l4 -26q-11 -22 -7 -60l-11 -34l-8 -103q0 -20 19 -67l-8 -85l-29 -162l-11 -17l-15 -225q-3 -13 -84 -31l-41 9l-11 25l11 68l-3 13l14 81l-3 64l14 51l15 225l7 31q8 68 0 85l74 702q-18 30 -26 25l-140 26l-58 -4l-48 -17 q-19 4 -70 -13l-48 5l-15 -10q-55 0 -62 18q-7 55 18 89l122 9zM874 1964v-13l44 43v12l-22 -12zM139 1410l165 -8l158 4l59 311l70 208q96 216 180 228l107 -8l22 -12l37 -5l44 -21l44 -47l11 -41v-17l-77 -77l-184 -141l-44 -13l-37 -76l-26 -89l-11 -21 q-29 -124 -29 -149l14 -13l41 -8q4 8 187 -5q11 8 155 0q254 -25 419 -17l147 -18l41 -20q11 8 51 -18q44 -51 44 -67q11 -30 -26 -43q-18 -42 -11 -55l-7 -5h-26l-51 18l-48 4l-180 42l-133 22l-88 8l-287 -4l-110 21h-40q-26 -21 -37 -8q-4 21 11 26l37 3q66 56 162 60 l7 13l-26 3l-147 -3l-85 -35l-58 -76l-48 -302q7 -77 0 -102l-15 -76q8 -43 -4 -51l4 -26q-11 -22 -7 -60l-11 -34l-8 -103q0 -20 19 -67l-8 -85l-29 -162l-11 -17l-15 -225q-3 -13 -84 -31l-41 9l-11 25l11 68l-3 13l14 81l-3 64l14 51l15 225l7 31q8 68 0 85l74 702 q-18 30 -26 25l-140 26l-58 -4l-48 -17q-19 4 -70 -13l-48 5l-15 -10q-55 0 -62 18q-7 55 18 89l122 9z" />
<glyph unicode="&#xfb04;" horiz-adv-x="3760" d="M3350 2423q42 13 42 -29q93 -29 97 -42l-8 -35l13 -110l-9 -15q4 -33 -10 -52l-30 -48l-36 -76l-4 -62l-28 -67q-9 -149 -22 -168q8 -38 0 -116l-59 -129l-4 -100l-9 -30v-48l-13 -62q-4 -91 -14 -105v-57l-14 -53l-13 -101v-52q-13 0 -13 -58l4 -155l9 -58 q-18 -18 -18 -57q9 -10 -18 -100l-9 -129l9 -144l-9 -34l14 -57v-38h31l76 125l41 42l139 263l44 134l42 74l34 8l16 -24v-28l-33 -72l-46 -53l-39 -106l-58 -109v-15l-23 -33l-13 -44l-72 -129l-41 -50l-4 -14q-36 -53 -108 -71q-93 -15 -117 49q-17 22 -17 86 q-36 34 -40 143l9 53q-9 14 5 164l17 115l-4 14l17 104l4 93l18 72l24 196q-9 63 0 86q17 20 21 44l55 356l22 120v52l26 139l-4 96l17 48v52l24 37v30l22 95l-4 67l26 81l4 61q46 17 41 36zM2370 1964v-13l44 43v12l-22 -12zM1635 1410l165 -8l158 4l59 311l70 208 q96 216 180 228l107 -8l22 -12l37 -5l44 -21l44 -47l11 -41v-17l-77 -77l-184 -141l-44 -13l-37 -76l-26 -89l-11 -21q-29 -124 -29 -149l14 -13l41 -8q4 8 187 -5q11 8 155 0q254 -25 419 -17l147 -18l41 -20q11 8 51 -18q44 -51 44 -67q11 -30 -26 -43q-18 -42 -11 -55 l-7 -5h-26l-51 18l-48 4l-180 42l-133 22l-88 8l-287 -4l-110 21h-40q-26 -21 -37 -8q-4 21 11 26l37 3q66 56 162 60l7 13l-26 3l-147 -3l-85 -35l-58 -76l-48 -302q7 -77 0 -102l-15 -76q8 -43 -4 -51l4 -26q-11 -22 -7 -60l-11 -34l-8 -103q0 -20 19 -67l-8 -85l-29 -162 l-11 -17l-15 -225q-3 -13 -84 -31l-41 9l-11 25l11 68l-3 13l14 81l-3 64l14 51l15 225l7 31q8 68 0 85l74 702q-18 30 -26 25l-140 26l-58 -4l-48 -17q-19 4 -70 -13l-48 5l-15 -10q-55 0 -62 18q-7 55 18 89l122 9zM874 1964v-13l44 43v12l-22 -12zM139 1410l165 -8l158 4 l59 311l70 208q96 216 180 228l107 -8l22 -12l37 -5l44 -21l44 -47l11 -41v-17l-77 -77l-184 -141l-44 -13l-37 -76l-26 -89l-11 -21q-29 -124 -29 -149l14 -13l41 -8q4 8 187 -5q11 8 155 0q254 -25 419 -17l147 -18l41 -20q11 8 51 -18q44 -51 44 -67q11 -30 -26 -43 q-18 -42 -11 -55l-7 -5h-26l-51 18l-48 4l-180 42l-133 22l-88 8l-287 -4l-110 21h-40q-26 -21 -37 -8q-4 21 11 26l37 3q66 56 162 60l7 13l-26 3l-147 -3l-85 -35l-58 -76l-48 -302q7 -77 0 -102l-15 -76q8 -43 -4 -51l4 -26q-11 -22 -7 -60l-11 -34l-8 -103q0 -20 19 -67 l-8 -85l-29 -162l-11 -17l-15 -225q-3 -13 -84 -31l-41 9l-11 25l11 68l-3 13l14 81l-3 64l14 51l15 225l7 31q8 68 0 85l74 702q-18 30 -26 25l-140 26l-58 -4l-48 -17q-19 4 -70 -13l-48 5l-15 -10q-55 0 -62 18q-7 55 18 89l122 9z" />
</font>
</defs>
</svg>
