<?xml version="1.0" standalone="no"?>
<!DOCTYPE svg PUBLIC "-//W3C//DTD SVG 1.1//EN" "http://www.w3.org/Graphics/SVG/1.1/DTD/svg11.dtd" >
<svg xmlns="http://www.w3.org/2000/svg">
<metadata>
This is a custom SVG webfont generated by Font Squirrel.
Copyright   :  1985 1987 1997 1998 2001 2002 Adobe Systems Incorporated All rights reserved
Designer    : Herb Lubalin
Foundry URL : httpwwwadobecomtype
</metadata>
<defs>
<font id="webfontJ1FVBRia" horiz-adv-x="1187" >
<font-face units-per-em="2048" ascent="1473" descent="-575" />
<missing-glyph horiz-adv-x="614" />
<glyph unicode=" "  horiz-adv-x="614" />
<glyph unicode="&#x09;" horiz-adv-x="614" />
<glyph unicode="&#xa0;" horiz-adv-x="614" />
<glyph unicode="!" horiz-adv-x="286" d="M215 223v-223h-141v223h141zM215 1462v-1087h-141v1087h141z" />
<glyph unicode="&#x22;" horiz-adv-x="573" d="M465 997h-98l-23 465h143zM193 997h-97l-22 465h143z" />
<glyph unicode="#" d="M795 532l-74 -532h-96l73 532h-249l-74 -532h-96l71 532h-291v95h310l30 239h-284v97h301l69 499h97l-68 -499h248l72 499h94l-68 -499h268v-97h-286l-29 -239h264v-95h-282zM745 866h-247l-31 -239h248z" />
<glyph unicode="$" d="M965 1114h-117q0 82 -62.5 153.5t-146.5 90.5v-539q182 -27 297 -139.5t115 -290.5q0 -172 -120 -289.5t-292 -132.5v-190h-125v190q-88 29 -142.5 64t-99.5 102v-133h-116v393h116q2 -102 71 -181t171 -114v607l-65 20q-147 43 -224 127q-90 102 -90 250 q0 158 110.5 267.5t268.5 119.5v201h125v-201q152 -35 209 -148v119h117v-346zM514 846v512q-94 -4 -161.5 -79t-67.5 -173q0 -104 62.5 -169.5t166.5 -90.5zM639 678v-580q113 14 187.5 94t74.5 195t-72.5 189.5t-189.5 101.5z" />
<glyph unicode="%" horiz-adv-x="1638" d="M1239 -27q-143 0 -241.5 101.5t-98.5 244.5q0 139 101.5 235.5t238.5 96.5q139 0 238.5 -99t99.5 -239q0 -141 -98.5 -240.5t-239.5 -99.5zM1239 94q92 0 155.5 64.5t63.5 156.5q0 90 -63.5 153.5t-153.5 63.5t-155.5 -61t-65.5 -152q0 -94 63.5 -159.5t155.5 -65.5z M412 815q-143 0 -240.5 101.5t-97.5 244.5q0 139 101 235.5t238.5 96.5t237 -99.5t99.5 -238.5q0 -141 -98.5 -240.5t-239.5 -99.5zM414 934q92 0 155.5 65.5t63.5 157.5q0 88 -64.5 152.5t-152.5 64.5q-90 0 -156.5 -61.5t-66.5 -151.5q0 -94 63.5 -160.5t157.5 -66.5z M563 0h-119l650 1462h116z" />
<glyph unicode="&#x26;" horiz-adv-x="1474" d="M1391 72l-95 -95l-333 326q-80 -162 -185.5 -247t-269.5 -85q-178 0 -306 124t-128 302q0 262 344 434l-29 27q-88 82 -129 147.5t-41 161.5q0 141 100.5 237.5t243.5 96.5q137 0 237.5 -95t100.5 -232q0 -215 -283 -355l326 -311l193 416h264v-127h-178l-183 -385z M496 936l39 -35q68 33 112.5 61.5t86.5 83t42 117.5q0 88 -60.5 151.5t-150.5 63.5q-88 0 -149.5 -59t-61.5 -148q0 -51 24.5 -98t43.5 -65zM866 395l-358 344q-289 -127 -289 -338q0 -125 87 -214t212 -89q72 0 127 22.5t96 70t66.5 90t58.5 114.5z" />
<glyph unicode="'" horiz-adv-x="286" d="M193 997h-97l-22 465h143z" />
<glyph unicode="(" horiz-adv-x="696" d="M614 -106v-166q-246 115 -393 354.5t-147 515.5q0 305 174 551q164 236 366 313v-162q-182 -115 -285.5 -301t-103.5 -399q0 -215 104.5 -405t284.5 -301z" />
<glyph unicode=")" horiz-adv-x="696" d="M74 1300v162q205 -82 366 -313q174 -246 174 -551q0 -276 -147.5 -516t-392.5 -354v166q180 111 284.5 301t104.5 405q0 213 -103.5 399t-285.5 301z" />
<glyph unicode="*" horiz-adv-x="696" d="M635 1239v-86h-209l106 -170l-73 -45l-105 178l-98 -184l-74 41l103 180l-211 -4v86h207l-113 176l74 47l110 -186l107 190l76 -43l-109 -184z" />
<glyph unicode="+" horiz-adv-x="1351" d="M145 795h457v456h127v-456h457v-125h-457v-457h-127v457h-457v125z" />
<glyph unicode="," horiz-adv-x="614" d="M295 -199h-129l151 377h129z" />
<glyph unicode="-" horiz-adv-x="614" d="M561 467h-508v135h508v-135z" />
<glyph unicode="." horiz-adv-x="614" d="M379 223v-223h-141v223h141z" />
<glyph unicode="/" d="M182 -399h-108l911 1861h111z" />
<glyph unicode="0" d="M1098 965v-457q0 -225 -129 -369q-158 -168 -381 -168q-207 0 -361 150q-150 147 -149 387v457q0 227 131 366q158 170 379 170q211 0 360 -149q150 -147 150 -387zM223 963v-455q0 -164 74 -260q104 -143 291 -144q88 0 168 40t131 110q66 94 65 254v455q0 168 -71 260 q-104 143 -293 143q-88 0 -168 -40t-129 -112q-68 -93 -68 -251z" />
<glyph unicode="1" d="M705 1462v-1335h192v-127h-528v127h192v1219h-282v116h426z" />
<glyph unicode="2" d="M922 354h131v-354h-932v127l618 602q57 55 88 91t59.5 96.5t28.5 123.5q0 135 -93 227.5t-228 92.5q-143 0 -236.5 -102.5t-85.5 -245.5h-141q-8 205 130 347t343 142q84 0 171 -34.5t149 -92.5q135 -135 135 -338q0 -88 -37 -166.5t-77 -124t-120 -122.5l-516 -496h613 v227z" />
<glyph unicode="3" d="M350 1147h-137q2 152 115.5 253t267.5 101q156 0 267.5 -101.5t111.5 -256.5q0 -104 -51.5 -189.5t-145.5 -122.5q129 -41 208 -152.5t79 -248.5q0 -193 -139.5 -326t-329.5 -133q-199 0 -338 125t-149 322h149q10 -131 102.5 -223.5t221.5 -92.5q141 0 236 99.5 t95 240.5q0 139 -104 232.5t-246 93.5h-74v115h70q121 0 191 55q88 70 88 188q0 109 -71 180.5t-177 71.5q-96 0 -166 -67.5t-74 -163.5z" />
<glyph unicode="4" d="M1124 477v-119h-213v-231h193v-127h-526v127h190v231h-719v119l686 985h176v-985h213zM768 477v811l-557 -811h557z" />
<glyph unicode="5" d="M68 397h151q25 -129 127.5 -211t233.5 -82q154 0 266 106.5t112 258.5q0 158 -107.5 266.5t-266.5 108.5q-197 0 -305 -154l-129 31l135 741h723v-127h-607l-92 -471q131 109 305 109q203 0 347.5 -145.5t144.5 -348.5q0 -217 -153.5 -362.5t-370.5 -145.5 q-197 0 -339 118t-175 308z" />
<glyph unicode="6" d="M621 1462h161l-374 -547q102 70 213 70q201 0 341 -144.5t140 -344.5q0 -219 -146.5 -372t-363.5 -153q-219 0 -369.5 155t-150.5 374q0 154 118 331zM588 113q154 0 264.5 108.5t110.5 261.5q0 156 -109 268.5t-266 112.5q-156 0 -265.5 -110.5t-109.5 -264.5 q0 -156 109.5 -266t265.5 -110z" />
<glyph unicode="7" d="M143 1462h889v-137l-600 -1325h-160l613 1335h-600v-264h-142v391z" />
<glyph unicode="8" d="M406 811q-96 41 -151.5 124t-55.5 189q0 164 115.5 270.5t281.5 106.5q150 0 260.5 -106.5t110.5 -255.5q0 -223 -199 -320q125 -41 206 -151.5t81 -241.5q0 -193 -137.5 -324t-329.5 -131q-195 0 -331 126t-136 317q0 135 79 244.5t206 152.5zM581.5 868 q104.5 0 178.5 75t74 177q0 104 -73 179t-177.5 75t-178 -73.5t-73.5 -178t72.5 -179.5t177 -75zM586 100q133 0 225 94.5t92 227.5q0 131 -94 225t-227 94q-131 0 -224.5 -94t-93.5 -225q0 -135 94.5 -228.5t227.5 -93.5z" />
<glyph unicode="9" d="M567 0h-178l377 541q-109 -68 -207 -68q-203 0 -346 149.5t-143 352.5q0 215 153.5 370.5t368.5 155.5q217 0 366.5 -155.5t149.5 -370.5q0 -168 -119 -344zM592 600q158 0 265.5 113.5t107.5 271.5q0 152 -110 262.5t-261 110.5q-156 0 -268.5 -108.5t-112.5 -264.5 q0 -160 109.5 -272.5t269.5 -112.5z" />
<glyph unicode=":" horiz-adv-x="614" d="M379 223v-223h-141v223h141zM379 973v-223h-141v223h141z" />
<glyph unicode=";" horiz-adv-x="614" d="M223 -199h-129l152 377h129zM373 973v-223h-131v223h131z" />
<glyph unicode="&#x3c;" horiz-adv-x="1351" d="M1219 299v-129l-1106 504v119l1106 507v-129l-963 -440z" />
<glyph unicode="=" horiz-adv-x="1351" d="M145 948h1041v-125h-1041v125zM145 643h1041v-125h-1041v125z" />
<glyph unicode="&#x3e;" horiz-adv-x="1351" d="M113 299l962 432l-962 440v129l1106 -507v-119l-1106 -504v129z" />
<glyph unicode="?" horiz-adv-x="1064" d="M612 223v-223h-143v223h143zM612 369h-143q0 131 51 224t160 191q59 53 85 81t50.5 80t24.5 114q0 129 -92.5 220t-221.5 91t-219 -94t-90 -223h-143q-2 188 131 324t323 136q188 0 323.5 -131t135.5 -319q0 -82 -29.5 -149.5t-62.5 -103.5t-107 -105q-86 -82 -129 -158 t-47 -178z" />
<glyph unicode="@" horiz-adv-x="1843" d="M1561 307l38 -59q-111 -137 -273.5 -207t-350.5 -70q-154 0 -310.5 54.5t-269.5 148.5q-119 102 -183.5 249.5t-64.5 307.5q0 319 245 544.5t577 225.5q291 0 500.5 -177t209.5 -452q0 -215 -110 -358q-61 -80 -153.5 -133t-188.5 -53q-121 0 -127 123 q-115 -133 -287 -134q-137 0 -223 102.5t-86 239.5q0 193 142 349.5t337 156.5q84 0 151.5 -43t92.5 -118l33 100h96l-154 -524q-23 -72 -22 -105q0 -70 75 -69q57 0 122 38.5t106 87.5q117 127 116 336q0 229 -178 392q-184 164 -458 163q-289 0 -506 -194 q-221 -203 -221 -498q0 -301 211.5 -491.5t527.5 -190.5q168 0 326 67.5t260 190.5zM836 408q102 0 184 69q57 51 98 160q63 184 64 262q0 82 -57.5 131t-143.5 49q-158 0 -267.5 -135t-109.5 -291q0 -104 63 -174.5t169 -70.5z" />
<glyph unicode="A" horiz-adv-x="1679" d="M1671 0h-536v135h190l-145 336h-678l-150 -336h185v-135h-523v135h183l530 1192h-195v135h383l574 -1327h182v-135zM1137 592l-293 704l-299 -704h592z" />
<glyph unicode="B" d="M49 1462h602q188 0 283 -71q143 -109 143 -289q0 -102 -55 -188.5t-148 -131.5q127 -47 200 -149.5t73 -237.5q0 -180 -127 -297q-66 -59 -142.5 -78.5t-189.5 -19.5h-639v135h187v1192h-187v135zM383 831h225q61 0 88 2.5t70 15.5t78 42q86 72 86 194q0 131 -96 201 q-14 10 -27.5 17.5t-32 11.5t-29 7t-34 4t-30.5 1h-35h-32h-231v-496zM383 135h252q188 0 264 49q100 63 100 230q0 154 -116 235q-37 27 -86 39t-83 14.5t-96 2.5h-235v-570z" />
<glyph unicode="C" horiz-adv-x="1515" d="M1450 1106h-135q-80 119 -216 183.5t-288 64.5q-258 0 -437 -177.5t-179 -433.5t177 -440t435 -184q154 0 289 69.5t223 194.5h164q-92 -188 -275.5 -300t-396.5 -112q-150 0 -292 59.5t-249 164.5q-223 221 -223 548q0 307 229 547q96 100 236.5 155.5t296.5 55.5 q315 0 506 -211v172h135v-356z" />
<glyph unicode="D" horiz-adv-x="1474" d="M236 135v1192h-189v135h651q162 0 285 -45t236 -153q217 -213 217 -537q0 -299 -209 -520q-109 -113 -235 -160t-294 -47h-651v135h189zM383 135h287q145 0 251.5 34t194.5 128q80 84 126 199.5t46 232.5q0 127 -48 247t-136 204q-92 86 -189.5 116.5t-238.5 30.5h-293 v-1192z" />
<glyph unicode="E" horiz-adv-x="1146" d="M932 377h147v-377h-1030v135h187v1192h-187v135h1030v-377h-147v242h-549v-528h565v-121h-565v-543h549v242z" />
<glyph unicode="F" horiz-adv-x="1146" d="M383 674v-539h188v-135h-522v135h187v1192h-187v135h1032v-381h-147v246h-551v-532h557v-121h-557z" />
<glyph unicode="G" horiz-adv-x="1597" d="M1479 1096h-136q-106 129 -239 192q-133 68 -289 68q-258 0 -439 -178.5t-181 -436.5t178 -440t438 -182q209 0 372 120.5t216 319.5h-733v127h895v-686h-136v340q-90 -174 -255.5 -271.5t-364.5 -97.5q-190 0 -370.5 102.5t-274.5 266.5q-113 195 -113 401 q0 158 58.5 296.5t158.5 234.5q242 229 555 229q150 0 289 -60.5t235 -168.5v190h136v-366z" />
<glyph unicode="H" horiz-adv-x="1474" d="M1110 797v530h-186v135h520v-135h-187v-1192h187v-135h-520v135h186v547h-727v-547h188v-135h-522v135h187v1192h-187v135h522v-135h-188v-530h727z" />
<glyph unicode="I" horiz-adv-x="614" d="M383 1327v-1192h186v-135h-520v135h187v1192h-187v135h520v-135h-186z" />
<glyph unicode="J" horiz-adv-x="1064" d="M41 336h154q10 -96 75.5 -161.5t161.5 -65.5q115 0 191 96q27 33 40 79t14 73.5t1 88.5v881h-189v135h523v-135h-187v-911q0 -102 -15 -167t-67 -132q-111 -145 -315 -146q-160 0 -271.5 103.5t-115.5 261.5z" />
<glyph unicode="K" horiz-adv-x="1433" d="M1384 135v-135h-536v135h170l-635 602v-602h186v-135h-520v135h187v1192h-187v135h520v-135h-186v-543l602 543h-164v135h529v-135h-176l-629 -563l667 -629h172z" />
<glyph unicode="L" horiz-adv-x="1064" d="M862 377h148v-377h-961v135h187v1192h-187v135h520v-135h-186v-1192h479v242z" />
<glyph unicode="M" horiz-adv-x="2007" d="M373 1270v-1135h192v-135h-526v135h186v1192h-186v135h410l530 -1241l582 1241h405v-135h-188v-1192h188v-135h-524v135h188v1139l-598 -1274h-114z" />
<glyph unicode="N" horiz-adv-x="1638" d="M1409 1327v-1327h-152l-874 1223v-1088h188v-135h-522v135h187v1192h-187v135h336l877 -1229v1094h-187v135h520v-135h-186z" />
<glyph unicode="O" horiz-adv-x="1638" d="M819.5 -29q-319.5 0 -546 223.5t-226.5 540.5q0 319 225.5 542.5t546.5 223.5q315 0 540.5 -222t225.5 -534q0 -322 -223 -548t-542.5 -226zM817 117q258 2 439.5 184t181.5 438q0 252 -181.5 433.5t-437.5 181.5q-258 0 -441 -180.5t-183 -434.5q0 -258 181 -439 t441 -181v-2z" />
<glyph unicode="P" d="M383 578v-443h186v-135h-520v135h187v1192h-187v135h598q211 0 340 -94q80 -59 124 -151.5t44 -192.5q0 -195 -141 -330q-72 -70 -154 -93t-198 -23h-279zM383 713h264q166 0 248 67q113 94 113 240q0 143 -117 237q-92 70 -246 70h-262v-614z" />
<glyph unicode="Q" horiz-adv-x="1761" d="M1618 258h117v-299h-14q-246 0 -457 150q-207 -137 -449 -138q-322 0 -543 224.5t-221 543.5q0 315 222.5 538.5t537.5 223.5q322 0 548 -223t226 -541q0 -154 -58.5 -297t-168.5 -243q135 -88 260 -103v164zM1243 293q195 176 195 436q0 262 -180.5 443.5t-442.5 181.5 q-254 0 -435 -179.5t-181 -431.5q0 -63 30 -168q164 53 316 54q201 0 360.5 -86t337.5 -250zM1147 211l-41 35q-164 143 -266 190q-147 72 -299 72q-145 0 -277 -53q76 -154 226.5 -245t322.5 -91q195 0 334 92z" />
<glyph unicode="R" horiz-adv-x="1310" d="M1278 135v-135h-285l-452 631h55q176 0 248 24q35 12 65 31q76 47 120 125t44 168q0 164 -110 264q-57 53 -123 68.5t-168 15.5h-287v-1192h174v-135h-510v135h189v1192h-189v135h633q123 0 209 -21.5t164 -86.5q166 -141 166 -369q0 -186 -128 -318t-315 -132l305 -400 h195z" />
<glyph unicode="S" horiz-adv-x="1024" d="M889 1112h-123q-14 121 -94 190.5t-197 69.5q-115 0 -197.5 -71.5t-82.5 -184.5q0 -131 96 -203q57 -43 244 -86q205 -47 292 -122q137 -113 138 -297q0 -160 -84 -265q-135 -172 -365 -172q-217 0 -332 172v-143h-123v393h123q14 -131 102.5 -210t223.5 -79 q127 0 217 82t90 207q0 61 -20.5 109.5t-48 78t-77.5 53t-90 36t-104 28.5q-10 2 -42 10.5t-43 12.5t-37.5 11t-42 13.5t-37 16.5t-39.5 21l-37 24q-152 111 -152 305q0 129 76 231q57 78 152.5 118t201.5 40q92 0 173 -41t116 -117v119h123v-350z" />
<glyph unicode="T" horiz-adv-x="1105" d="M637 1327v-1192h186v-135h-520v135h186v1192h-317v-256h-127v391h1036v-391h-127v256h-317z" />
<glyph unicode="U" horiz-adv-x="1433" d="M1192 1327v-842q0 -225 -117 -360q-137 -154 -358 -154t-359 150q-72 80 -96 169t-24 214v823h-187v135h510v-135h-176v-807q0 -182 61 -272q92 -129 269 -129q162 0 254 112q76 96 75 287v809h-176v135h510v-135h-186z" />
<glyph unicode="V" horiz-adv-x="1597" d="M1415 1327l-536 -1327h-156l-524 1327h-185v135h523v-135h-183l451 -1122l459 1122h-187v135h514v-135h-176z" />
<glyph unicode="W" horiz-adv-x="2129" d="M1911 1327l-369 -1327h-158l-323 1174l-330 -1174h-153l-385 1327h-179v135h523v-135h-191l313 -1102l342 1237h117l342 -1235l307 1100h-196v135h524v-135h-184z" />
<glyph unicode="X" horiz-adv-x="1515" d="M848 752l450 -617h170v-135h-524v135h186l-368 508l-369 -508h178v-135h-526v135h182l447 617l-420 575h-176v135h524v-135h-178l338 -469l334 469h-187v135h527v-135h-170z" />
<glyph unicode="Y" horiz-adv-x="1392" d="M780 492v-357h187v-135h-523v135h189v357l-445 835h-174v135h510v-135h-180l363 -696l344 696h-189v135h512v-135h-174z" />
<glyph unicode="Z" horiz-adv-x="1064" d="M1036 379v-379h-989v121l760 1206h-608v-244h-127v379h915v-116l-762 -1211h684v244h127z" />
<glyph unicode="[" horiz-adv-x="614" d="M532 -127v-137h-460v1726h460v-131h-309v-1458h309z" />
<glyph unicode="\" d="M780 0l-614 1462h141l611 -1462h-138z" />
<glyph unicode="]" horiz-adv-x="614" d="M74 -127h307v1458h-307v131h458v-1726h-458v137z" />
<glyph unicode="^" horiz-adv-x="1351" d="M227 356h-125l504 1106h115l508 -1106h-127l-440 959z" />
<glyph unicode="_" horiz-adv-x="1024" d="M0 -154h1024v-102h-1024v102z" />
<glyph unicode="`" horiz-adv-x="860" d="M702 1321l-51 -102l-506 274l58 119z" />
<glyph unicode="a" horiz-adv-x="1351" d="M1024 0v223q-147 -252 -438 -252q-147 0 -274.5 67.5t-196.5 184.5q-86 142 -87 290q0 10 1 19q0 72 15 134.5t28.5 89t46.5 84.5q66 117 192.5 185.5t272.5 68.5q289 0 440 -254v235h313v-127h-178v-821h178v-127h-313zM598 961q-178 0 -306 -126t-128 -305 q0 -174 126 -301t302 -127q182 0 308 126t126 307q0 176 -126 301t-302 125z" />
<glyph unicode="b" horiz-adv-x="1351" d="M346 1462v-626q68 121 179.5 189.5t246.5 68.5q236 0 399.5 -164t163.5 -400q0 -162 -90 -307q-61 -100 -188 -176t-269 -76q-139 0 -256.5 65.5t-185.5 186.5v-223h-315v127h180v1208h-180v127h315zM776 106q176 0 300 126t124 305q0 174 -125 297.5t-301 123.5 q-184 0 -309 -122.5t-125 -305.5q0 -180 127 -302t309 -122z" />
<glyph unicode="c" horiz-adv-x="1146" d="M1083 1075v-323h-127q-59 96 -157.5 151t-210.5 55q-178 0 -301 -125.5t-123 -304t126 -300.5t308 -122q117 0 219.5 61.5t149.5 168.5h151q-59 -166 -206.5 -265.5t-325.5 -99.5q-229 0 -393 164t-164 391q0 233 157 396q168 172 394 172q223 0 376 -172v153h127z" />
<glyph unicode="d" horiz-adv-x="1351" d="M1024 0v227q-70 -121 -185.5 -188.5t-254.5 -67.5q-129 0 -260 73t-201 183q-94 150 -94 310q0 225 162.5 391t386.5 166q141 0 262 -71t184 -196v508h-180v127h315v-1335h180v-127h-315zM598 98q180 0 305 128t125 311q0 178 -126 303t-304 125q-180 0 -307 -128 t-127 -309q0 -178 128 -304t306 -126z" />
<glyph unicode="e" d="M956 301h144q-68 -150 -207 -240t-305 -90q-231 0 -396 163t-165 392q0 231 160.5 399.5t392.5 168.5q240 0 402.5 -164t162.5 -402v-41h-983q8 -166 132 -280.5t290 -114.5q119 0 217 54.5t155 154.5zM162 598h856q-23 164 -149 268.5t-291 104.5q-154 0 -276 -109.5 t-140 -263.5z" />
<glyph unicode="f" horiz-adv-x="614" d="M348 952v-825h184v-127h-501v127h182v825h-182v131h180v17q2 80 6 118.5t27.5 94t70.5 96.5q88 82 258 92v-121q-92 -6 -149 -53q-35 -27 -52.5 -65.5t-19.5 -66.5t-4 -85v-27h184v-131h-184z" />
<glyph unicode="g" horiz-adv-x="1351" d="M100 -117h156q49 -98 145.5 -154.5t208.5 -56.5q176 0 297 131q66 68 88.5 140.5t22.5 177.5v115q-63 -125 -179 -195t-259 -70q-127 0 -268.5 72t-205.5 193q-80 152 -79 299q0 180 92 311q82 117 206 182.5t263 65.5q137 0 253.5 -66.5t176.5 -181.5v229h315v-127h-180 v-801q0 -137 -26.5 -231t-106.5 -182q-164 -178 -418 -178q-168 0 -309.5 86.5t-192.5 240.5zM598 98q178 0 304 129t126 307.5t-127 306.5t-305 128q-180 0 -307 -129t-127 -310q0 -178 129 -305t307 -127z" />
<glyph unicode="h" horiz-adv-x="1310" d="M346 1462v-588q55 102 148.5 161t207.5 59q193 0 322 -152q63 -76 81.5 -159t18.5 -210v-446h181v-127h-496v127h180v391v37v40q0 9 -1 35.5t-3 39t-5 35t-8 36.5l-13 33q-7 18 -17 35q-41 72 -113.5 113t-154.5 41q-150 0 -244 -107q-39 -45 -58.5 -97t-22.5 -92 t-3 -112v-428h180v-127h-495v127h180v1208h-180v127h315z" />
<glyph unicode="i" horiz-adv-x="532" d="M350 1075v-948h180v-127h-499v127h184v821h-180v127h315zM350 1462v-211h-135v211h135z" />
<glyph unicode="j" horiz-adv-x="491" d="M356 1075v-1055q0 -195 -70.5 -295t-256.5 -135v129q47 8 81.5 24.5t55 45.5t33 51.5t16.5 67.5t5 68.5t1 76.5v27v868h-180v127h315zM356 1462v-211h-135v211h135z" />
<glyph unicode="k" d="M350 1462v-866l395 352h-161v127h506v-127h-177l-403 -366l453 -455h194v-127h-528v127h151l-430 434v-434h164v-127h-483v127h184v1208h-184v127h319z" />
<glyph unicode="l" horiz-adv-x="573" d="M358 1462v-1335h179v-127h-506v127h192v1208h-180v127h315z" />
<glyph unicode="m" horiz-adv-x="2007" d="M348 1075v-186q47 96 132 150.5t196 54.5q227 0 340 -205l22 -41q43 111 145.5 178.5t219.5 67.5q279 0 381 -246q31 -74 31 -240v-481h180v-127h-496v127h180v451q0 209 -65 282q-90 102 -229.5 102.5t-227.5 -100.5q-47 -55 -61.5 -109.5t-14.5 -142.5v-483h181v-127 h-496v127h180v455q0 182 -65 278q-70 102 -230 103q-141 0 -225 -101q-78 -92 -78 -266v-469h180v-127h-495v127h180v821h-180v127h315z" />
<glyph unicode="n" horiz-adv-x="1351" d="M346 1075v-188q49 98 147.5 152.5t213.5 54.5q102 0 211.5 -54.5t158.5 -152.5q59 -119 60 -281v-479h180v-127h-496v127h180v430q0 184 -51 272q-76 131 -280 132q-156 0 -252 -113q-47 -55 -59.5 -116.5t-12.5 -158.5v-446h180v-127h-495v127h180v821h-180v127h315z " />
<glyph unicode="o" d="M590 -29q-233 0 -398 164t-165 395q0 236 165.5 400t401.5 164q229 0 394 -163t165 -390q0 -236 -163.5 -403t-399.5 -167zM590 104q178 0 303 126t125 302.5t-124 302.5t-302 126t-304 -125t-126 -301.5t125 -303.5t303 -127z" />
<glyph unicode="p" horiz-adv-x="1351" d="M346 1075v-239q145 258 445 258q139 0 264 -64.5t198 -193.5q88 -154 88 -304q0 -233 -160.5 -397t-389.5 -164q-139 0 -260 69t-185 187v-499h180v-127h-495v127h180v1220h-180v127h315zM774 98q176 0 304 128t128 306q0 195 -126 320q-116 115 -272 115h-26 q-184 -10 -311 -126t-127 -306q0 -180 126 -308.5t304 -128.5z" />
<glyph unicode="q" horiz-adv-x="1351" d="M1022 -272v497q-61 -119 -183 -186.5t-259 -67.5q-231 0 -391 163t-160 396q0 166 77 304q61 111 189.5 185.5t284.5 74.5q143 0 257.5 -68t184.5 -192v241h315v-127h-180v-1220h180v-127h-495v127h180zM596 98q178 0 304 127q128 129 128 313q0 165 -128 296 q-130 133 -310 133q-16 1 -33 1q-161 0 -271 -113q-122 -124 -122 -323q0 -180 127 -307t305 -127z" />
<glyph unicode="r" horiz-adv-x="737" d="M346 1075v-219q35 106 128 160.5t216 58.5v-127q-344 -29 -344 -389v-432h180v-127h-495v127h180v821h-180v127h315z" />
<glyph unicode="s" horiz-adv-x="860" d="M754 803h-111q-2 82 -70 131q-66 49 -151.5 49t-148 -49t-62.5 -133q0 -47 20.5 -82t59.5 -56.5t72.5 -31.5t85.5 -21q166 -33 243 -80q133 -76 133 -235q0 -76 -47 -166q-37 -72 -127 -115t-186 -43q-205 0 -299 158v-129h-111v307h111q8 -98 87 -162.5t187 -64.5 q94 0 164 57.5t70 147.5q0 43 -15.5 75.5t-35 51t-58.5 34t-64.5 21.5t-72.5 16q-174 39 -242 80q-127 82 -127 228q0 113 56 184q45 57 123.5 88t160.5 31q168 0 244 -119v100h111v-272z" />
<glyph unicode="t" horiz-adv-x="655" d="M369 948v-821h254v-127h-390v948h-206v127h206v387h136v-387h237v-127h-237z" />
<glyph unicode="u" horiz-adv-x="1310" d="M979 0v180q-51 -98 -147.5 -153.5t-210.5 -55.5q-113 0 -213.5 61.5t-153.5 147.5q-55 90 -55 264v504h-181v127h316v-579q0 -63 3 -101.5t18.5 -89.5t45.5 -92q88 -116 230 -116q14 0 28 1q154 12 242 117q51 59 64.5 118.5t13.5 158.5v456h-180v127h315v-948h182v-127 h-317z" />
<glyph unicode="v" horiz-adv-x="1310" d="M1124 948l-393 -948h-151l-385 948h-181v127h494v-127h-164l313 -786l322 786h-172v127h489v-127h-172z" />
<glyph unicode="w" horiz-adv-x="1843" d="M1653 948l-340 -948h-142l-239 743l-273 -743h-139l-325 948h-181v127h488v-127h-170l270 -772l277 795h112l252 -785l275 762h-175v127h490v-127h-180z" />
<glyph unicode="x" horiz-adv-x="1228" d="M694 539l307 -412h179v-127h-490v127h144l-230 315l-229 -315h143v-127h-487v127h176l305 412l-307 409h-168v127h481v-127h-147l233 -311l230 311h-156v127h483v-127h-166z" />
<glyph unicode="y" horiz-adv-x="1310" d="M1108 948l-512 -1220h176v-127h-498v127h181l110 264l-379 956h-172v127h492v-127h-170l303 -786l322 786h-168v127h487v-127h-172z" />
<glyph unicode="z" horiz-adv-x="860" d="M723 326h121v-326h-817v115l616 833h-463v-207h-121v334h754v-125l-604 -823h514v199z" />
<glyph unicode="{" horiz-adv-x="614" d="M373 354v-377q0 -98 33.5 -149t125.5 -80q-147 -4 -221 51q-76 55 -75 215v377q0 39 -1.5 57.5t-11.5 44t-30 50.5q-45 51 -119 67q55 10 104 45q29 23 42 54.5t14.5 52t1.5 67.5v334q0 172 62 239.5t234 59.5q-88 -25 -123.5 -79t-35.5 -148v-352q0 -121 -35 -185.5 t-143 -87.5q104 -23 141 -83t37 -173z" />
<glyph unicode="|" horiz-adv-x="1351" d="M602 1536h127v-2048h-127v2048z" />
<glyph unicode="}" horiz-adv-x="614" d="M233 883v352q0 94 -34.5 148.5t-122.5 78.5q172 8 233.5 -59.5t61.5 -239.5v-334q0 -47 2 -67.5t15 -52t42 -54.5q45 -35 102 -45q-74 -16 -118 -67q-20 -25 -30.5 -50.5t-11.5 -44t-1 -57.5v-377q0 -162 -74 -215q-33 -25 -73 -36t-67.5 -13t-80.5 -2q90 29 123.5 80 t33.5 149v377q0 113 37 173.5t142 82.5q-106 23 -142.5 88.5t-36.5 184.5z" />
<glyph unicode="~" horiz-adv-x="1351" d="M1128 860l97 -61q-49 -68 -81 -105t-90.5 -70.5t-126 -33.5t-202.5 49l-109 41q-141 53 -192 53q-74 0 -121 -42t-98 -122l-96 62q70 109 141.5 166t177.5 57q88 0 260 -72q186 -72 236 -71q47 0 88 24.5t62 50t54 74.5z" />
<glyph unicode="&#xa1;" horiz-adv-x="286" d="M74 852v223h141v-223h-141zM74 -389v1089h141v-1089h-141z" />
<glyph unicode="&#xa2;" d="M1010 907h-125q-70 117 -203 137v-636q127 35 199 135h151q-43 -109 -137 -178.5t-213 -92.5v-190h-119v190q-172 18 -289.5 149.5t-117.5 305.5q0 176 116.5 306t290.5 153v192h119v-192q145 -27 231 -129v114h97v-264zM563 408v636q-119 -18 -193.5 -108t-74.5 -211 q0 -117 76.5 -207t191.5 -110z" />
<glyph unicode="&#xa3;" d="M356 793h500v-115h-414q82 -82 124 -150.5t42 -158.5q0 -147 -104 -250h174q176 0 260 61q111 82 111 232q0 43 -15 77h133q12 -35 13 -86q0 -186 -138 -303q-117 -100 -346 -100h-598v119h236q61 33 93 100.5t32 142.5q0 63 -33 127t-62.5 95.5t-95.5 93.5h-260v115h180 q-80 111 -79 237q0 188 143 326.5t334 138.5q213 0 348 -176v141h133v-354h-133q-16 115 -111.5 187.5t-214.5 72.5q-147 0 -247.5 -100.5t-100.5 -247.5q0 -129 96 -225z" />
<glyph unicode="&#xa4;" d="M102 291l113 110q-102 125 -102 293q0 172 102 297l-113 109l82 84l111 -111q131 102 297 103q170 0 295 -103l110 111l82 -84l-108 -109q100 -127 100 -297q0 -156 -100 -293l108 -110l-84 -80l-108 108q-131 -104 -291 -104q-158 0 -301 104l-109 -108zM593.5 1055 q-149.5 0 -253.5 -104.5t-104 -252t103 -253t250.5 -105.5t254 103.5t106.5 250.5q0 150 -103.5 255.5t-253 105.5z" />
<glyph unicode="&#xa5;" d="M827 0h-440v127h158v356l-35 74h-410v92h371l-49 115h-322v90h279l-211 481h-150v127h435v-127h-156l309 -706l289 706h-158v127h432v-127h-145l-197 -481h279v-90h-320l-49 -115h369v-92h-408l-28 -74v-356h157v-127z" />
<glyph unicode="&#xa6;" horiz-adv-x="1351" d="M602 1382h127v-716h-127v716zM602 358h127v-716h-127v716z" />
<glyph unicode="&#xa7;" horiz-adv-x="901" d="M55 82l127 -4q-8 -111 67 -169.5t189 -58.5q104 0 175 57.5t71 158.5q0 98 -86 159q-47 31 -172 60q-330 70 -330 317q0 113 67.5 192.5t178.5 106.5q-211 82 -211 266q0 129 94 212t225.5 83t234.5 -71.5t106 -196.5l-121 4q0 74 -64.5 114t-144.5 40 q-88 0 -147.5 -55.5t-59.5 -141.5q0 -143 235 -219q135 -43 189 -84q125 -98 125 -246q0 -96 -58.5 -171t-150.5 -107q94 -31 151.5 -102.5t57.5 -170.5q0 -150 -107.5 -236.5t-261.5 -86.5q-152 0 -265.5 89t-113.5 236v25zM442 401q100 0 169 57.5t69 155.5 q0 80 -71.5 140.5t-153.5 60.5q-94 0 -168 -55t-74 -148q0 -90 69.5 -150.5t159.5 -60.5z" />
<glyph unicode="&#xa8;" horiz-adv-x="696" d="M549 1540v-256h-141v256h141zM289 1540v-256h-142v256h142z" />
<glyph unicode="&#xa9;" horiz-adv-x="1679" d="M834 -29q-309 0 -528.5 225.5t-219.5 540.5q0 317 220 540.5t536 223.5q309 0 530 -222t221 -536q0 -324 -220 -548t-539 -224zM842 74v4q266 -2 457.5 190.5t191.5 464.5q0 279 -190.5 472.5t-462.5 193.5q-266 0 -458 -194.5t-192 -465.5q0 -274 192 -469.5t462 -195.5 zM1128 582l123 -39q-41 -125 -155.5 -191.5t-253.5 -66.5q-193 0 -310.5 125t-117.5 321q0 203 127 335t327 132q131 0 244 -65.5t139 -184.5l-139 -33q-16 94 -82.5 145.5t-167.5 51.5q-150 0 -231.5 -109.5t-81.5 -265t80 -259t229 -103.5q200 0 270 207z" />
<glyph unicode="&#xaa;" horiz-adv-x="860" d="M614 838v116q-39 -63 -106.5 -98t-142.5 -35q-70 0 -146 40t-117 93q-74 98 -73 209q0 129 69 205q68 74 126.5 103.5t137.5 29.5q162 0 252 -133v117h201v-90h-106v-469h106v-88h-201zM369 913q104 0 175.5 73t71.5 177q0 102 -72.5 174t-173 72t-173 -72.5 t-72.5 -175.5q0 -100 72 -174t172 -74z" />
<glyph unicode="&#xab;" horiz-adv-x="655" d="M309 141l-235 353v81l235 351l31 -115l-174 -281l174 -278zM555 170l-221 324v79l221 330l31 -119l-160 -254l160 -251z" />
<glyph unicode="&#xac;" horiz-adv-x="1351" d="M1200 317v506h-1192v125h1315v-631h-123z" />
<glyph unicode="&#xad;" horiz-adv-x="614" d="M561 467h-508v135h508v-135z" />
<glyph unicode="&#xae;" horiz-adv-x="1679" d="M838 -29q-311 0 -531.5 226.5t-220.5 541.5q0 317 222 539.5t535.5 222.5t533.5 -224t220 -541.5t-223 -541t-536 -223.5zM848 74v4q266 -2 456.5 194.5t190.5 466.5q0 274 -193.5 467t-463.5 193q-266 0 -458 -194.5t-192 -465.5q0 -279 193 -472t467 -193zM989 702 l258 -411h-147l-244 411h-197v-411h-127v911h410q145 0 215 -43q106 -61 107 -207q0 -123 -74 -184.5t-201 -65.5zM659 801h236q49 0 86 5t75 20.5t58.5 49t20.5 85.5q0 47 -19.5 78.5t-55.5 45t-70 18.5t-79 5h-252v-307z" />
<glyph unicode="&#xaf;" horiz-adv-x="942" d="M801 1470v-112h-656v112h656z" />
<glyph unicode="&#xb0;" horiz-adv-x="819" d="M717 1194q0 -127 -90 -217t-217 -90t-217.5 90t-90.5 217q-2 127 89.5 217t218.5 90t217 -90t90 -217zM635 1194q0 92 -66.5 158.5t-160.5 66.5q-90 0 -157 -66.5t-67 -158.5t66.5 -158.5t159 -66.5t159 66.5t66.5 158.5z" />
<glyph unicode="&#xb1;" horiz-adv-x="1351" d="M156 920h456v331h127v-331h457v-125h-457v-332h-127v332h-456v125zM156 338h1040v-125h-1040v125z" />
<glyph unicode="&#xb2;" horiz-adv-x="712" d="M571 813h84v-213h-604v76l402 362q39 35 58 55.5t37.5 56.5t18.5 75q0 82 -60.5 137t-148.5 55q-98 0 -153 -60.5t-55 -148.5h-93q0 125 87 209t221 84q123 0 208.5 -79t85.5 -199q0 -53 -23.5 -100.5t-50 -75t-77.5 -72.5l-336 -299h399v137z" />
<glyph unicode="&#xb3;" horiz-adv-x="712" d="M332 1061h-49v69h65q63 0 112.5 38t49.5 108q0 66 -46 108.5t-116 42.5q-61 0 -107 -40.5t-48 -98.5h-91q2 92 77 152.5t173 60.5q100 0 173 -61.5t73 -153.5q0 -139 -127 -186q82 -25 134 -91.5t52 -150.5q0 -115 -90 -194.5t-215 -79.5q-129 0 -219 74.5t-98 193.5h98 q6 -78 65.5 -134t143.5 -56q92 0 154.5 59t62.5 145q0 84 -68.5 139.5t-158.5 55.5z" />
<glyph unicode="&#xb4;" horiz-adv-x="860" d="M195 1223l-50 100l504 285l62 -117z" />
<glyph unicode="&#xb5;" horiz-adv-x="1310" d="M979 0v180h-4q-49 -98 -143.5 -153.5t-210.5 -55.5q-160 0 -287 113v-483h-135v1347h-181v127h316v-604q0 -160 76.5 -266.5t248.5 -106.5q18 0 45 4t79.5 26t92 57.5t71.5 110.5t32 175v477h-180v127h315v-948h182v-127h-317z" />
<glyph unicode="&#xb6;" horiz-adv-x="1024" d="M494 1462h507v-127h-180v-1599h-106v1599h-168v-1599h-109v995q-154 4 -259 107.5t-105 257.5q0 168 125 276q61 53 129 71.5t166 18.5z" />
<glyph unicode="&#xb7;" horiz-adv-x="614" d="M379 846v-223h-141v223h141z" />
<glyph unicode="&#xb8;" horiz-adv-x="655" d="M340 -18l-53 -164q25 12 53 12q68 0 112 -48t44 -118q0 -74 -50.5 -127t-122 -53t-119.5 42t-59 112h95q20 -59 79 -60q37 0 59.5 24.5t22.5 61.5t-24.5 60.5t-61.5 23.5q-49 0 -73 -37l-78 29l80 242h96z" />
<glyph unicode="&#xb9;" horiz-adv-x="712" d="M414 1462v-800h131v-76h-357v76h129v731h-190v69h287z" />
<glyph unicode="&#xba;" horiz-adv-x="696" d="M367 823q-139 0 -238.5 99.5t-99.5 238.5q0 141 99 240.5t241 99.5q139 0 237.5 -98t98.5 -236q0 -141 -98.5 -242.5t-239.5 -101.5zM366.5 911q104.5 0 177 74t72.5 178q0 102 -72.5 176t-174.5 74q-104 0 -178 -72.5t-74 -177t72.5 -178.5t177 -74z" />
<glyph unicode="&#xbb;" horiz-adv-x="655" d="M350 141l-31 111l175 278l-175 281l31 115l236 -351v-81zM104 170l-30 109l162 251l-162 254l30 119l224 -330v-79z" />
<glyph unicode="&#xbc;" horiz-adv-x="1781" d="M578 0h-119l649 1462h117zM1671 287v-72h-139v-139h127v-76h-344v76h125v139h-467v72l446 590h113v-590h139zM434 659h131v-73h-354v73h127v732h-191v71h287v-803zM1440 287v487l-363 -487h363z" />
<glyph unicode="&#xbd;" horiz-adv-x="1781" d="M604 0h-119l650 1462h116zM414 1462v-800h131v-76h-357v76h129v731h-190v69h287zM1620 213h84v-213h-604v76l401 362q39 35 58.5 55.5t38 56.5t18.5 75q0 82 -60.5 137t-148.5 55q-98 0 -153.5 -60.5t-55.5 -148.5h-92q0 125 87 209t220 84q123 0 209 -79t86 -199 q0 -53 -23.5 -100.5t-50 -75t-78.5 -72.5l-335 -299h399v137z" />
<glyph unicode="&#xbe;" horiz-adv-x="1781" d="M1753 287v-72h-139v-139h127v-76h-344v76h125v139h-467v72l446 590h113v-590h139zM1522 287v485l-363 -485h363zM674 0h-119l649 1462h117zM352 1061h-49v69h66q63 0 112 38t49 108q0 66 -46 108.5t-115 42.5q-61 0 -107.5 -40.5t-48.5 -98.5h-90q2 92 76.5 152.5 t173.5 60.5q100 0 172.5 -61.5t72.5 -153.5q0 -139 -126 -186q82 -25 134 -91.5t52 -150.5q0 -115 -90 -194.5t-215 -79.5q-129 0 -219.5 74.5t-98.5 193.5h99q6 -78 65.5 -134t142.5 -56q92 0 155 59t63 145q0 84 -69 139.5t-159 55.5z" />
<glyph unicode="&#xbf;" horiz-adv-x="1064" d="M449 852v223h143v-223h-143zM449 707h143q2 -131 -50.5 -224.5t-160.5 -191.5q-61 -57 -85 -83t-49.5 -78t-25.5 -116q0 -129 92.5 -219t221.5 -90t219 94.5t90 223.5h143q2 -190 -131 -325.5t-324 -135.5q-188 0 -323 131t-135 319q0 82 28.5 148.5t61.5 103.5t108 107 q84 80 128.5 156t48.5 180z" />
<glyph unicode="&#xc0;" horiz-adv-x="1679" d="M1671 0h-536v135h190l-145 336h-678l-150 -336h185v-135h-523v135h183l530 1192h-195v135h383l574 -1327h182v-135zM1137 592l-293 704l-299 -704h592zM1112 1708l-51 -102l-506 274l57 119z" />
<glyph unicode="&#xc1;" horiz-adv-x="1679" d="M1671 0h-536v135h190l-145 336h-678l-150 -336h185v-135h-523v135h183l530 1192h-195v135h383l574 -1327h182v-135zM1137 592l-293 704l-299 -704h592zM604 1610l-49 100l504 285l61 -117z" />
<glyph unicode="&#xc2;" horiz-adv-x="1679" d="M1671 0h-536v135h190l-145 336h-678l-150 -336h185v-135h-523v135h183l530 1192h-195v135h383l574 -1327h182v-135zM1137 592l-293 704l-299 -704h592zM1241 1651h-176l-223 168l-219 -168h-170l352 282h80z" />
<glyph unicode="&#xc3;" horiz-adv-x="1679" d="M1671 0h-536v135h190l-145 336h-678l-150 -336h185v-135h-523v135h183l530 1192h-195v135h383l574 -1327h182v-135zM1137 592l-293 704l-299 -704h592zM1094 1894l75 -92q-88 -94 -202 -94q-57 0 -135 36t-113 36q-66 0 -123 -62l-80 101q31 35 81 57t95 22t127 -34 q82 -37 129 -37q93 -1 146 67z" />
<glyph unicode="&#xc4;" horiz-adv-x="1679" d="M1671 0h-536v135h190l-145 336h-678l-150 -336h185v-135h-523v135h183l530 1192h-195v135h383l574 -1327h182v-135zM1137 592l-293 704l-299 -704h592zM1040 1927v-256h-141v256h141zM780 1927v-256h-141v256h141z" />
<glyph unicode="&#xc5;" horiz-adv-x="1679" d="M1671 0h-536v135h190l-145 336h-678l-150 -336h185v-135h-523v135h183l530 1192h-195v135h383l574 -1327h182v-135zM1137 592l-293 704l-299 -704h592zM838 1577q-92 0 -156 63.5t-64 155.5q0 90 65 152.5t155 62.5q88 0 151.5 -64.5t63.5 -152.5q0 -90 -63.5 -153.5 t-151.5 -63.5zM837.5 1667q53.5 0 89.5 38t36 91t-38 89t-89 36q-55 0 -91 -38t-36 -91t37.5 -89t91 -36z" />
<glyph unicode="&#xc6;" horiz-adv-x="2048" d="M1835 377h147v-377h-1026v135h187v348h-539l-254 -348h187v-135h-523v135h187l829 1192h-182v135h1134v-377h-147v242h-545v-528h572v-121h-572v-543h545v242zM1143 598v686l-467 -686h467z" />
<glyph unicode="&#xc7;" horiz-adv-x="1515" d="M1450 1106h-135q-80 119 -216 183.5t-288 64.5q-258 0 -437 -177.5t-179 -433.5t177 -440t435 -184q154 0 289 69.5t223 194.5h164q-92 -188 -275.5 -300t-396.5 -112q-25 0 -35 2l-51 -155q25 12 53 12q68 0 112 -48t44 -118q0 -74 -50 -127t-122 -53t-120 42t-58 112 h94q20 -59 80 -60q37 0 59.5 24.5t22.5 61.5t-24.5 60.5t-61.5 23.5q-49 0 -74 -37l-78 29l82 246q-233 33 -414 209q-223 221 -223 548q0 307 229 547q96 100 236.5 155.5t296.5 55.5q315 0 506 -211v172h135v-356z" />
<glyph unicode="&#xc8;" horiz-adv-x="1146" d="M932 377h147v-377h-1030v135h187v1192h-187v135h1030v-377h-147v242h-549v-528h565v-121h-565v-543h549v242zM846 1708l-51 -102l-506 274l57 119z" />
<glyph unicode="&#xc9;" horiz-adv-x="1146" d="M932 377h147v-377h-1030v135h187v1192h-187v135h1030v-377h-147v242h-549v-528h565v-121h-565v-543h549v242zM338 1610l-49 100l504 285l61 -117z" />
<glyph unicode="&#xca;" horiz-adv-x="1146" d="M932 377h147v-377h-1030v135h187v1192h-187v135h1030v-377h-147v242h-549v-528h565v-121h-565v-543h549v242zM975 1651h-176l-224 168l-219 -168h-170l353 282h79z" />
<glyph unicode="&#xcb;" horiz-adv-x="1146" d="M932 377h147v-377h-1030v135h187v1192h-187v135h1030v-377h-147v242h-549v-528h565v-121h-565v-543h549v242zM774 1927v-256h-141v256h141zM514 1927v-256h-141v256h141z" />
<glyph unicode="&#xcc;" horiz-adv-x="614" d="M383 1327v-1192h186v-135h-520v135h187v1192h-187v135h520v-135h-186zM580 1708l-52 -102l-505 274l57 119z" />
<glyph unicode="&#xcd;" horiz-adv-x="614" d="M383 1327v-1192h186v-135h-520v135h187v1192h-187v135h520v-135h-186zM72 1610l-49 100l503 285l62 -117z" />
<glyph unicode="&#xce;" horiz-adv-x="614" d="M383 1327v-1192h186v-135h-520v135h187v1192h-187v135h520v-135h-186zM709 1651h-177l-223 168l-219 -168h-170l352 282h80z" />
<glyph unicode="&#xcf;" horiz-adv-x="614" d="M383 1327v-1192h186v-135h-520v135h187v1192h-187v135h520v-135h-186zM508 1927v-256h-141v256h141zM248 1927v-256h-142v256h142z" />
<glyph unicode="&#xd0;" horiz-adv-x="1474" d="M47 682v115h189v530h-189v135h651q162 0 285 -45t236 -153q217 -213 217 -537q0 -299 -209 -520q-109 -113 -235 -160t-294 -47h-651v135h189v547h-189zM383 1327v-530h336v-115h-336v-547h287q145 0 251.5 34t194.5 128q80 84 126 199.5t46 232.5q0 127 -48 247 t-136 204q-92 86 -189.5 116.5t-238.5 30.5h-293z" />
<glyph unicode="&#xd1;" horiz-adv-x="1638" d="M1409 1327v-1327h-152l-874 1223v-1088h188v-135h-522v135h187v1192h-187v135h336l877 -1229v1094h-187v135h520v-135h-186zM1073 1894l76 -92q-88 -94 -203 -94q-57 0 -135 36t-113 36q-66 0 -123 -62l-79 101q31 35 81 57t95 22t127 -34q82 -37 129 -37q92 -1 145 67z " />
<glyph unicode="&#xd2;" horiz-adv-x="1638" d="M819.5 -29q-319.5 0 -546 223.5t-226.5 540.5q0 319 225.5 542.5t546.5 223.5q315 0 540.5 -222t225.5 -534q0 -322 -223 -548t-542.5 -226zM817 117q258 2 439.5 184t181.5 438q0 252 -181.5 433.5t-437.5 181.5q-258 0 -441 -180.5t-183 -434.5q0 -258 181 -439 t441 -181v-2zM1092 1708l-52 -102l-505 274l57 119z" />
<glyph unicode="&#xd3;" horiz-adv-x="1638" d="M819.5 -29q-319.5 0 -546 223.5t-226.5 540.5q0 319 225.5 542.5t546.5 223.5q315 0 540.5 -222t225.5 -534q0 -322 -223 -548t-542.5 -226zM817 117q258 2 439.5 184t181.5 438q0 252 -181.5 433.5t-437.5 181.5q-258 0 -441 -180.5t-183 -434.5q0 -258 181 -439 t441 -181v-2zM584 1610l-49 100l503 285l62 -117z" />
<glyph unicode="&#xd4;" horiz-adv-x="1638" d="M819.5 -29q-319.5 0 -546 223.5t-226.5 540.5q0 319 225.5 542.5t546.5 223.5q315 0 540.5 -222t225.5 -534q0 -322 -223 -548t-542.5 -226zM817 117q258 2 439.5 184t181.5 438q0 252 -181.5 433.5t-437.5 181.5q-258 0 -441 -180.5t-183 -434.5q0 -258 181 -439 t441 -181v-2zM1221 1651h-177l-223 168l-219 -168h-170l352 282h80z" />
<glyph unicode="&#xd5;" horiz-adv-x="1638" d="M819.5 -29q-319.5 0 -546 223.5t-226.5 540.5q0 319 225.5 542.5t546.5 223.5q315 0 540.5 -222t225.5 -534q0 -322 -223 -548t-542.5 -226zM817 117q258 2 439.5 184t181.5 438q0 252 -181.5 433.5t-437.5 181.5q-258 0 -441 -180.5t-183 -434.5q0 -258 181 -439 t441 -181v-2zM1073 1894l76 -92q-88 -94 -203 -94q-57 0 -135 36t-113 36q-66 0 -123 -62l-79 101q31 35 81 57t95 22t127 -34q82 -37 129 -37q92 -1 145 67z" />
<glyph unicode="&#xd6;" horiz-adv-x="1638" d="M819.5 -29q-319.5 0 -546 223.5t-226.5 540.5q0 319 225.5 542.5t546.5 223.5q315 0 540.5 -222t225.5 -534q0 -322 -223 -548t-542.5 -226zM817 117q258 2 439.5 184t181.5 438q0 252 -181.5 433.5t-437.5 181.5q-258 0 -441 -180.5t-183 -434.5q0 -258 181 -439 t441 -181v-2zM1020 1927v-256h-141v256h141zM760 1927v-256h-142v256h142z" />
<glyph unicode="&#xd7;" horiz-adv-x="1351" d="M217 365l369 368l-369 369l90 90l369 -369l368 369l91 -90l-369 -369l369 -368l-91 -91l-368 369l-369 -369z" />
<glyph unicode="&#xd8;" horiz-adv-x="1638" d="M375 100l-176 -219l-88 72l180 219q-244 227 -244 559q0 324 225.5 547t550.5 223q205 0 412 -129l22 -12l166 203l88 -70l-165 -203q236 -229 235 -559q0 -313 -224 -536.5t-540 -223.5q-209 0 -379 95zM1249 1171l-776 -950q180 -102 338 -102q262 0 442.5 181 t180.5 441q-1 240 -185 430zM387 293l778 950q-178 111 -346 111q-262 0 -443 -181.5t-181 -439.5q-1 -237 192 -440z" />
<glyph unicode="&#xd9;" horiz-adv-x="1433" d="M1192 1327v-842q0 -225 -117 -360q-137 -154 -358 -154t-359 150q-72 80 -96 169t-24 214v823h-187v135h510v-135h-176v-807q0 -182 61 -272q92 -129 269 -129q162 0 254 112q76 96 75 287v809h-176v135h510v-135h-186zM989 1708l-51 -102l-506 274l57 119z" />
<glyph unicode="&#xda;" horiz-adv-x="1433" d="M1192 1327v-842q0 -225 -117 -360q-137 -154 -358 -154t-359 150q-72 80 -96 169t-24 214v823h-187v135h510v-135h-176v-807q0 -182 61 -272q92 -129 269 -129q162 0 254 112q76 96 75 287v809h-176v135h510v-135h-186zM481 1610l-49 100l504 285l61 -117z" />
<glyph unicode="&#xdb;" horiz-adv-x="1433" d="M1192 1327v-842q0 -225 -117 -360q-137 -154 -358 -154t-359 150q-72 80 -96 169t-24 214v823h-187v135h510v-135h-176v-807q0 -182 61 -272q92 -129 269 -129q162 0 254 112q76 96 75 287v809h-176v135h510v-135h-186zM1118 1651h-176l-223 168l-219 -168h-170l352 282 h80z" />
<glyph unicode="&#xdc;" horiz-adv-x="1433" d="M1192 1327v-842q0 -225 -117 -360q-137 -154 -358 -154t-359 150q-72 80 -96 169t-24 214v823h-187v135h510v-135h-176v-807q0 -182 61 -272q92 -129 269 -129q162 0 254 112q76 96 75 287v809h-176v135h510v-135h-186zM918 1927v-256h-142v256h142zM657 1927v-256h-141 v256h141z" />
<glyph unicode="&#xdd;" horiz-adv-x="1392" d="M780 492v-357h187v-135h-523v135h189v357l-445 835h-174v135h510v-135h-180l363 -696l344 696h-189v135h512v-135h-174zM461 1610l-49 100l503 285l62 -117z" />
<glyph unicode="&#xde;" d="M383 326v-191h186v-135h-520v135h187v1192h-187v135h520v-135h-186v-147h264q219 0 363.5 -107.5t144.5 -310.5q0 -207 -139 -321.5t-354 -114.5h-279zM383 461h264q158 0 259.5 73.5t101.5 223.5q0 141 -104.5 213.5t-258.5 72.5h-262v-583z" />
<glyph unicode="&#xdf;" d="M207 127v885q0 199 92 317q57 76 146.5 118t185.5 42q166 0 287.5 -114.5t121.5 -280.5q0 -113 -56 -203t-161 -127q150 -18 241 -127t91 -264q0 -176 -115.5 -291t-294.5 -115q-106 0 -202 51v132q92 -55 184 -56q119 0 202 83t83 202q0 63 -31 125.5t-80 103.5 q-92 72 -252 72h-51l-18 -2v127q129 -10 221 68.5t92 207.5q0 111 -78 190t-190 79q-137 0 -219 -115q-25 -37 -37.5 -81t-14.5 -74.5t-2 -90.5v-989h-325v127h180z" />
<glyph unicode="&#xe0;" horiz-adv-x="1351" d="M1024 0v223q-147 -252 -438 -252q-147 0 -274.5 67.5t-196.5 184.5q-92 152 -86 309q0 72 15 134.5t28.5 89t46.5 84.5q66 117 192.5 185.5t272.5 68.5q289 0 440 -254v235h313v-127h-178v-821h178v-127h-313zM598 961q-178 0 -306 -126t-128 -305q0 -174 126 -301 t302 -127q182 0 308 126t126 307q0 176 -126 301t-302 125zM948 1321l-51 -102l-506 274l58 119z" />
<glyph unicode="&#xe1;" horiz-adv-x="1351" d="M1024 0v223q-147 -252 -438 -252q-147 0 -274.5 67.5t-196.5 184.5q-92 152 -86 309q0 72 15 134.5t28.5 89t46.5 84.5q66 117 192.5 185.5t272.5 68.5q289 0 440 -254v235h313v-127h-178v-821h178v-127h-313zM598 961q-178 0 -306 -126t-128 -305q0 -174 126 -301 t302 -127q182 0 308 126t126 307q0 176 -126 301t-302 125zM440 1223l-49 100l504 285l61 -117z" />
<glyph unicode="&#xe2;" horiz-adv-x="1351" d="M1024 0v223q-147 -252 -438 -252q-147 0 -274.5 67.5t-196.5 184.5q-92 152 -86 309q0 72 15 134.5t28.5 89t46.5 84.5q66 117 192.5 185.5t272.5 68.5q289 0 440 -254v235h313v-127h-178v-821h178v-127h-313zM598 961q-178 0 -306 -126t-128 -305q0 -174 126 -301 t302 -127q182 0 308 126t126 307q0 176 -126 301t-302 125zM1077 1264h-176l-223 168l-219 -168h-170l352 282h80z" />
<glyph unicode="&#xe3;" horiz-adv-x="1351" d="M1024 0v223q-147 -252 -438 -252q-147 0 -274.5 67.5t-196.5 184.5q-92 152 -86 309q0 72 15 134.5t28.5 89t46.5 84.5q66 117 192.5 185.5t272.5 68.5q289 0 440 -254v235h313v-127h-178v-821h178v-127h-313zM598 961q-178 0 -306 -126t-128 -305q0 -174 126 -301 t302 -127q182 0 308 126t126 307q0 176 -126 301t-302 125zM930 1507l76 -92q-88 -94 -203 -94q-57 0 -135 36t-113 36q-66 0 -123 -62l-80 101q31 35 81 57t95 22t127 -34q82 -37 129 -37q93 -1 146 67z" />
<glyph unicode="&#xe4;" horiz-adv-x="1351" d="M1024 0v223q-147 -252 -438 -252q-147 0 -274.5 67.5t-196.5 184.5q-92 152 -86 309q0 72 15 134.5t28.5 89t46.5 84.5q66 117 192.5 185.5t272.5 68.5q289 0 440 -254v235h313v-127h-178v-821h178v-127h-313zM598 961q-178 0 -306 -126t-128 -305q0 -174 126 -301 t302 -127q182 0 308 126t126 307q0 176 -126 301t-302 125zM877 1540v-256h-142v256h142zM616 1540v-256h-141v256h141z" />
<glyph unicode="&#xe5;" horiz-adv-x="1351" d="M1024 0v223q-147 -252 -438 -252q-147 0 -274.5 67.5t-196.5 184.5q-92 152 -86 309q0 72 15 134.5t28.5 89t46.5 84.5q66 117 192.5 185.5t272.5 68.5q289 0 440 -254v235h313v-127h-178v-821h178v-127h-313zM598 961q-178 0 -306 -126t-128 -305q0 -174 126 -301 t302 -127q182 0 308 126t126 307q0 176 -126 301t-302 125zM674 1190q-92 0 -155.5 63.5t-63.5 155.5q0 90 64.5 152.5t154.5 62.5q88 0 151.5 -64.5t63.5 -152.5q0 -90 -63.5 -153.5t-151.5 -63.5zM674 1280q53 0 89 38t36 91t-38 89t-89 36q-55 0 -91 -38t-36 -91t38 -89 t91 -36z" />
<glyph unicode="&#xe6;" horiz-adv-x="2170" d="M1157 1075v-250q143 268 447 269q158 0 279.5 -75t189.5 -194q80 -143 79 -297v-36h-995q12 -166 138 -277t292 -111q119 0 202 47.5t163 151.5h155l-43 -72q-72 -119 -190.5 -189.5t-267.5 -70.5q-141 0 -262 70t-187 190v-231h-135v244q-61 -129 -173 -201t-257 -72 q-150 0 -280 75t-206 198q-78 127 -77 282q0 190 94 314q92 121 212 187.5t251 66.5q139 0 254.5 -68t181.5 -186v235h135zM594 104q184 2 306 127t122 310q0 176 -125 296.5t-301 120.5t-304 -121.5t-128 -295.5q0 -178 125 -306.5t305 -130.5zM1157 600h860 q-23 154 -145.5 256t-282.5 102q-164 0 -283.5 -99t-148.5 -259z" />
<glyph unicode="&#xe7;" horiz-adv-x="1146" d="M1083 1075v-323h-127q-59 96 -157.5 151t-210.5 55q-178 0 -301 -125.5t-123 -304t126 -300.5t308 -122q117 0 219.5 61.5t149.5 168.5h151q-59 -164 -205.5 -263.5t-322.5 -101.5l-49 -153q25 12 53 12q68 0 112 -48t44 -118q0 -74 -50.5 -127t-122 -53t-119.5 42 t-59 112h95q20 -59 79 -60q37 0 59.5 24.5t22.5 61.5t-24.5 60.5t-61.5 23.5q-49 0 -73 -37l-78 29l80 242q-201 31 -335 186.5t-134 357.5q0 233 157 396q168 172 394 172q223 0 376 -172v153h127z" />
<glyph unicode="&#xe8;" d="M956 301h144q-68 -150 -207 -240t-305 -90q-231 0 -396 163t-165 392q0 231 160.5 399.5t392.5 168.5q240 0 402.5 -164t162.5 -402v-41h-983q8 -166 132 -280.5t290 -114.5q119 0 217 54.5t155 154.5zM162 598h856q-23 164 -149 268.5t-291 104.5q-154 0 -276 -109.5 t-140 -263.5zM866 1321l-51 -102l-506 274l58 119z" />
<glyph unicode="&#xe9;" d="M956 301h144q-68 -150 -207 -240t-305 -90q-231 0 -396 163t-165 392q0 231 160.5 399.5t392.5 168.5q240 0 402.5 -164t162.5 -402v-41h-983q8 -166 132 -280.5t290 -114.5q119 0 217 54.5t155 154.5zM162 598h856q-23 164 -149 268.5t-291 104.5q-154 0 -276 -109.5 t-140 -263.5zM358 1223l-49 100l504 285l61 -117z" />
<glyph unicode="&#xea;" d="M956 301h144q-68 -150 -207 -240t-305 -90q-231 0 -396 163t-165 392q0 231 160.5 399.5t392.5 168.5q240 0 402.5 -164t162.5 -402v-41h-983q8 -166 132 -280.5t290 -114.5q119 0 217 54.5t155 154.5zM162 598h856q-23 164 -149 268.5t-291 104.5q-154 0 -276 -109.5 t-140 -263.5zM995 1264h-176l-223 168l-219 -168h-170l352 282h80z" />
<glyph unicode="&#xeb;" d="M956 301h144q-68 -150 -207 -240t-305 -90q-231 0 -396 163t-165 392q0 231 160.5 399.5t392.5 168.5q240 0 402.5 -164t162.5 -402v-41h-983q8 -166 132 -280.5t290 -114.5q119 0 217 54.5t155 154.5zM162 598h856q-23 164 -149 268.5t-291 104.5q-154 0 -276 -109.5 t-140 -263.5zM795 1540v-256h-142v256h142zM535 1540v-256h-142v256h142z" />
<glyph unicode="&#xec;" horiz-adv-x="532" d="M350 1075v-948h180v-127h-499v127h184v821h-180v127h315zM539 1321l-52 -102l-505 274l57 119z" />
<glyph unicode="&#xed;" horiz-adv-x="532" d="M350 1075v-948h180v-127h-499v127h184v821h-180v127h315zM31 1223l-49 100l503 285l62 -117z" />
<glyph unicode="&#xee;" horiz-adv-x="532" d="M350 1075v-948h180v-127h-499v127h184v821h-180v127h315zM668 1264h-176l-224 168l-219 -168h-170l352 282h80z" />
<glyph unicode="&#xef;" horiz-adv-x="532" d="M350 1075v-948h180v-127h-499v127h184v821h-180v127h315zM467 1540v-256h-141v256h141zM207 1540v-256h-141v256h141z" />
<glyph unicode="&#xf0;" d="M575 1237l-301 -119l-98 76l283 109q-139 70 -228 94l152 65q113 -35 231 -100l260 100l93 -73l-244 -95q82 -57 151.5 -124.5t136 -157.5t104.5 -204t38 -235q0 -258 -163 -430t-400 -172q-233 0 -398 164t-165 395q0 236 165.5 400t401.5 164q139 0 270 -107 q-101 137 -289 250zM590 104q178 0 303 126t125 302.5t-124 302.5t-302 126t-304 -125t-126 -301.5t125 -303.5t303 -127z" />
<glyph unicode="&#xf1;" horiz-adv-x="1351" d="M346 1075v-188q49 98 147.5 152.5t213.5 54.5q102 0 211.5 -54.5t158.5 -152.5q59 -119 60 -281v-479h180v-127h-496v127h180v430q0 184 -51 272q-76 131 -280 132q-156 0 -252 -113q-47 -55 -59.5 -116.5t-12.5 -158.5v-446h180v-127h-495v127h180v821h-180v127h315z M930 1507l76 -92q-88 -94 -203 -94q-57 0 -135 36t-113 36q-66 0 -123 -62l-80 101q31 35 81 57t95 22t127 -34q82 -37 129 -37q93 -1 146 67z" />
<glyph unicode="&#xf2;" d="M590 -29q-233 0 -398 164t-165 395q0 236 165.5 400t401.5 164q229 0 394 -163t165 -390q0 -236 -163.5 -403t-399.5 -167zM590 104q178 0 303 126t125 302.5t-124 302.5t-302 126t-304 -125t-126 -301.5t125 -303.5t303 -127zM866 1321l-51 -102l-506 274l58 119z" />
<glyph unicode="&#xf3;" d="M590 -29q-233 0 -398 164t-165 395q0 236 165.5 400t401.5 164q229 0 394 -163t165 -390q0 -236 -163.5 -403t-399.5 -167zM590 104q178 0 303 126t125 302.5t-124 302.5t-302 126t-304 -125t-126 -301.5t125 -303.5t303 -127zM358 1223l-49 100l504 285l61 -117z" />
<glyph unicode="&#xf4;" d="M590 -29q-233 0 -398 164t-165 395q0 236 165.5 400t401.5 164q229 0 394 -163t165 -390q0 -236 -163.5 -403t-399.5 -167zM590 104q178 0 303 126t125 302.5t-124 302.5t-302 126t-304 -125t-126 -301.5t125 -303.5t303 -127zM995 1264h-176l-223 168l-219 -168h-170 l352 282h80z" />
<glyph unicode="&#xf5;" d="M590 -29q-233 0 -398 164t-165 395q0 236 165.5 400t401.5 164q229 0 394 -163t165 -390q0 -236 -163.5 -403t-399.5 -167zM590 104q178 0 303 126t125 302.5t-124 302.5t-302 126t-304 -125t-126 -301.5t125 -303.5t303 -127zM848 1507l76 -92q-88 -94 -203 -94 q-57 0 -135 36t-113 36q-66 0 -123 -62l-80 101q31 35 81 57t95.5 22t126.5 -34q82 -37 129 -37q93 -1 146 67z" />
<glyph unicode="&#xf6;" d="M590 -29q-233 0 -398 164t-165 395q0 236 165.5 400t401.5 164q229 0 394 -163t165 -390q0 -236 -163.5 -403t-399.5 -167zM590 104q178 0 303 126t125 302.5t-124 302.5t-302 126t-304 -125t-126 -301.5t125 -303.5t303 -127zM795 1540v-256h-142v256h142zM535 1540 v-256h-142v256h142z" />
<glyph unicode="&#xf7;" horiz-adv-x="1351" d="M1192 670h-1032v125h1032v-125zM612 287v223h127v-223h-127zM612 1178h127v-224h-127v224z" />
<glyph unicode="&#xf8;" d="M307 47l-112 -158l-84 64l112 156q-195 170 -194 421q0 238 165.5 401t403.5 163q156 0 289 -76l114 160l84 -64l-114 -158q190 -176 190 -411q0 -242 -163.5 -408t-405.5 -166q-148 0 -285 76zM887 844l-494 -688q106 -49 205 -50q182 0 305 125t123 306q0 172 -139 307 zM309 221l496 686q-106 57 -215 58q-174 0 -300 -124t-126 -298q0 -183 145 -322z" />
<glyph unicode="&#xf9;" horiz-adv-x="1310" d="M979 0v180q-51 -98 -147.5 -153.5t-210.5 -55.5q-113 0 -213.5 61.5t-153.5 147.5q-55 90 -55 264v504h-181v127h316v-579q0 -63 3 -101.5t18.5 -89.5t45.5 -92q96 -127 258 -115q154 12 242 117q51 59 64.5 118.5t13.5 158.5v456h-180v127h315v-948h182v-127h-317z M928 1321l-51 -102l-506 274l57 119z" />
<glyph unicode="&#xfa;" horiz-adv-x="1310" d="M979 0v180q-51 -98 -147.5 -153.5t-210.5 -55.5q-113 0 -213.5 61.5t-153.5 147.5q-55 90 -55 264v504h-181v127h316v-579q0 -63 3 -101.5t18.5 -89.5t45.5 -92q96 -127 258 -115q154 12 242 117q51 59 64.5 118.5t13.5 158.5v456h-180v127h315v-948h182v-127h-317z M420 1223l-49 100l503 285l62 -117z" />
<glyph unicode="&#xfb;" horiz-adv-x="1310" d="M979 0v180q-51 -98 -147.5 -153.5t-210.5 -55.5q-113 0 -213.5 61.5t-153.5 147.5q-55 90 -55 264v504h-181v127h316v-579q0 -63 3 -101.5t18.5 -89.5t45.5 -92q96 -127 258 -115q154 12 242 117q51 59 64.5 118.5t13.5 158.5v456h-180v127h315v-948h182v-127h-317z M1057 1264h-176l-224 168l-219 -168h-170l353 282h79z" />
<glyph unicode="&#xfc;" horiz-adv-x="1310" d="M979 0v180q-51 -98 -147.5 -153.5t-210.5 -55.5q-113 0 -213.5 61.5t-153.5 147.5q-55 90 -55 264v504h-181v127h316v-579q0 -63 3 -101.5t18.5 -89.5t45.5 -92q96 -127 258 -115q154 12 242 117q51 59 64.5 118.5t13.5 158.5v456h-180v127h315v-948h182v-127h-317z M856 1540v-256h-141v256h141zM596 1540v-256h-141v256h141z" />
<glyph unicode="&#xfd;" horiz-adv-x="1310" d="M1108 948l-512 -1220h176v-127h-498v127h181l110 264l-379 956h-172v127h492v-127h-170l303 -786l322 786h-168v127h487v-127h-172zM420 1223l-49 100l503 285l62 -117z" />
<glyph unicode="&#xfe;" horiz-adv-x="1351" d="M346 1462v-626h4q139 258 441 258q231 0 390.5 -164t159.5 -397.5t-160.5 -397.5t-389.5 -164q-139 0 -260 69t-181 187h-4v-499h180v-127h-495v127h180v1607h-180v127h315zM774 98q176 0 304 128t128 306q0 195 -126 320t-298 115q-184 -10 -311 -126t-127 -306 q0 -180 126 -308.5t304 -128.5z" />
<glyph unicode="&#xff;" horiz-adv-x="1310" d="M1108 948l-512 -1220h176v-127h-498v127h181l110 264l-379 956h-172v127h492v-127h-170l303 -786l322 786h-168v127h487v-127h-172zM856 1540v-256h-141v256h141zM596 1540v-256h-141v256h141z" />
<glyph unicode="&#x2000;" horiz-adv-x="1005" />
<glyph unicode="&#x2001;" horiz-adv-x="2011" />
<glyph unicode="&#x2002;" horiz-adv-x="1005" />
<glyph unicode="&#x2003;" horiz-adv-x="2011" />
<glyph unicode="&#x2004;" horiz-adv-x="669" />
<glyph unicode="&#x2005;" horiz-adv-x="501" />
<glyph unicode="&#x2006;" horiz-adv-x="333" />
<glyph unicode="&#x2007;" horiz-adv-x="333" />
<glyph unicode="&#x2008;" horiz-adv-x="249" />
<glyph unicode="&#x2009;" horiz-adv-x="401" />
<glyph unicode="&#x200a;" horiz-adv-x="110" />
<glyph unicode="&#x2010;" horiz-adv-x="614" d="M561 467h-508v135h508v-135z" />
<glyph unicode="&#x2011;" horiz-adv-x="614" d="M561 467h-508v135h508v-135z" />
<glyph unicode="&#x2012;" horiz-adv-x="614" d="M561 467h-508v135h508v-135z" />
<glyph unicode="&#x2013;" horiz-adv-x="1130" d="M1077 467h-1024v135h1024v-135z" />
<glyph unicode="&#x2014;" horiz-adv-x="2154" d="M2101 467h-2048v135h2048v-135z" />
<glyph unicode="&#x202f;" horiz-adv-x="401" />
<glyph unicode="&#x205f;" horiz-adv-x="501" />
<glyph unicode="&#xe000;" horiz-adv-x="1075" d="M0 1075h1075v-1075h-1075v1075z" />
</font>
</defs>
</svg>
